M48
;Layer_Color=9474304
;FILE_FORMAT=2:4
INCH
;TYPE=PLATED
T1F00S00C0.0130
T2F00S00C0.0340
T3F00S00C0.0450
T4F00S00C0.0472
;TYPE=NON_PLATED
T5F00S00C0.1378
%
T01
X031302Y025572
X032142Y025602
X031542Y027412
X033682Y029572
X034242Y030872
X034682Y031202
X036452Y031062
X035502Y029972
X036042Y028252
X036672Y025672
X038712Y029162
X030772Y029482
X030822Y030502
X031112Y031092
X030612Y028542
X028652Y025412
X026612Y031892
X026208Y032292
X031002Y035782
X032832Y033442
X033262Y031792
X034852Y031762
X034993Y032236
X035412Y032002
X036976Y032462
X037592Y032433
X037867Y032039
X038103Y031646
T02
X019781Y027748
X020781
X021781
X022781
X023781
X024781
Y028748
Y029748
Y030748
X023781
Y029748
Y028748
Y026748
X022781
X021781
X020781
Y028748
Y029748
Y030748
X019781
Y029748
Y028748
Y031748
X020781
Y032748
X021781
X022781
X023781
Y031748
X022781
X021781
X024781
T03
X032111Y026882
X033111
X034111
X035111
X036111
X037111
X038111
X039111
X031111
X030111
Y034882
X031111
X026686Y035347
X025686
X024686
X023222Y035819
X022222
X021222
Y034819
X020222
X019222
Y035819
X020222
X022222Y034819
X023222
X032111Y034882
X033111
X034111
X035111
X036111
X037111
X038111
X039111
T04
X031964Y023476
X033054
X034145
X035235
X035781Y024595
X034690
X033600
X032509
X031418
X030328
X029237
X028147
X027056
X025966
X024875
X023785
X022702Y024598
X023239Y023476
X024330
X025420
X026511
X027602
X028692
X029783
X030873
T05
X038505Y024035
X019985
M30
