G04 Layer_Physical_Order=1*
G04 Layer_Color=255*
%FSAX24Y24*%
%MOIN*%
G70*
G01*
G75*
G04:AMPARAMS|DCode=10|XSize=21.7mil|YSize=57.1mil|CornerRadius=0mil|HoleSize=0mil|Usage=FLASHONLY|Rotation=45.000|XOffset=0mil|YOffset=0mil|HoleType=Round|Shape=Round|*
%AMOVALD10*
21,1,0.0354,0.0217,0.0000,0.0000,135.0*
1,1,0.0217,0.0125,-0.0125*
1,1,0.0217,-0.0125,0.0125*
%
%ADD10OVALD10*%

G04:AMPARAMS|DCode=11|XSize=21.7mil|YSize=57.1mil|CornerRadius=0mil|HoleSize=0mil|Usage=FLASHONLY|Rotation=135.000|XOffset=0mil|YOffset=0mil|HoleType=Round|Shape=Round|*
%AMOVALD11*
21,1,0.0354,0.0217,0.0000,0.0000,225.0*
1,1,0.0217,0.0125,0.0125*
1,1,0.0217,-0.0125,-0.0125*
%
%ADD11OVALD11*%

G04:AMPARAMS|DCode=12|XSize=39.4mil|YSize=35.4mil|CornerRadius=4.4mil|HoleSize=0mil|Usage=FLASHONLY|Rotation=180.000|XOffset=0mil|YOffset=0mil|HoleType=Round|Shape=RoundedRectangle|*
%AMROUNDEDRECTD12*
21,1,0.0394,0.0266,0,0,180.0*
21,1,0.0305,0.0354,0,0,180.0*
1,1,0.0089,-0.0153,0.0133*
1,1,0.0089,0.0153,0.0133*
1,1,0.0089,0.0153,-0.0133*
1,1,0.0089,-0.0153,-0.0133*
%
%ADD12ROUNDEDRECTD12*%
G04:AMPARAMS|DCode=13|XSize=39.4mil|YSize=35.4mil|CornerRadius=4.4mil|HoleSize=0mil|Usage=FLASHONLY|Rotation=270.000|XOffset=0mil|YOffset=0mil|HoleType=Round|Shape=RoundedRectangle|*
%AMROUNDEDRECTD13*
21,1,0.0394,0.0266,0,0,270.0*
21,1,0.0305,0.0354,0,0,270.0*
1,1,0.0089,-0.0133,-0.0153*
1,1,0.0089,-0.0133,0.0153*
1,1,0.0089,0.0133,0.0153*
1,1,0.0089,0.0133,-0.0153*
%
%ADD13ROUNDEDRECTD13*%
G04:AMPARAMS|DCode=14|XSize=70.9mil|YSize=78.7mil|CornerRadius=8.9mil|HoleSize=0mil|Usage=FLASHONLY|Rotation=0.000|XOffset=0mil|YOffset=0mil|HoleType=Round|Shape=RoundedRectangle|*
%AMROUNDEDRECTD14*
21,1,0.0709,0.0610,0,0,0.0*
21,1,0.0532,0.0787,0,0,0.0*
1,1,0.0177,0.0266,-0.0305*
1,1,0.0177,-0.0266,-0.0305*
1,1,0.0177,-0.0266,0.0305*
1,1,0.0177,0.0266,0.0305*
%
%ADD14ROUNDEDRECTD14*%
%ADD15C,0.0060*%
%ADD16C,0.0630*%
%ADD17C,0.0600*%
%ADD18C,0.0480*%
%ADD19C,0.0590*%
%ADD20C,0.0591*%
%ADD21C,0.0270*%
D10*
X031770Y031264D02*
D03*
X031992Y031487D02*
D03*
X032215Y031710D02*
D03*
X032438Y031932D02*
D03*
X032660Y032155D02*
D03*
X032883Y032378D02*
D03*
X033106Y032601D02*
D03*
X033329Y032823D02*
D03*
X033551Y033046D02*
D03*
X033774Y033269D02*
D03*
X033997Y033491D02*
D03*
X037115Y030374D02*
D03*
X036892Y030151D02*
D03*
X036669Y029928D02*
D03*
X036446Y029705D02*
D03*
X036224Y029483D02*
D03*
X036001Y029260D02*
D03*
X035778Y029037D02*
D03*
X035556Y028815D02*
D03*
X035333Y028592D02*
D03*
X035110Y028369D02*
D03*
X034887Y028146D02*
D03*
D11*
Y033491D02*
D03*
X035110Y033269D02*
D03*
X035333Y033046D02*
D03*
X035556Y032823D02*
D03*
X035778Y032601D02*
D03*
X036001Y032378D02*
D03*
X036224Y032155D02*
D03*
X036446Y031932D02*
D03*
X036669Y031710D02*
D03*
X036892Y031487D02*
D03*
X037115Y031264D02*
D03*
X033997Y028146D02*
D03*
X033774Y028369D02*
D03*
X033551Y028592D02*
D03*
X033329Y028815D02*
D03*
X033106Y029037D02*
D03*
X032883Y029260D02*
D03*
X032660Y029483D02*
D03*
X032438Y029705D02*
D03*
X032215Y029928D02*
D03*
X031992Y030151D02*
D03*
X031770Y030374D02*
D03*
D12*
X027119Y033280D02*
D03*
Y033949D02*
D03*
X036686Y028555D02*
D03*
Y027886D02*
D03*
X031765Y032807D02*
D03*
Y033476D02*
D03*
D13*
X032493Y027906D02*
D03*
X031824D02*
D03*
X036548Y033221D02*
D03*
X037218D02*
D03*
D14*
X027143Y030740D02*
D03*
X029143D02*
D03*
Y032394D02*
D03*
X027143D02*
D03*
D15*
X018700Y036330D02*
X039757D01*
X018700Y022585D02*
Y036330D01*
Y022585D02*
X039757D01*
Y036330D01*
X025643Y033280D02*
X027119D01*
X023320D02*
X025643D01*
X033551Y028592D02*
X034085Y029126D01*
X022781Y027748D02*
X023451Y027078D01*
X025540Y024447D02*
X026511Y023476D01*
X037115Y030374D02*
Y031264D01*
X024781Y026589D02*
Y027748D01*
Y026589D02*
X026371Y024999D01*
X023781Y026451D02*
Y026748D01*
Y026451D02*
X025540Y024691D01*
Y024447D02*
Y024691D01*
X023451Y026611D02*
Y027078D01*
Y026611D02*
X025420Y024642D01*
Y023476D02*
Y024642D01*
X022781Y026748D02*
X024330Y025199D01*
Y023476D02*
Y025199D01*
X021781Y027408D02*
Y027748D01*
Y027408D02*
X022111Y027078D01*
Y026379D02*
Y027078D01*
Y026379D02*
X023239Y025250D01*
Y023476D02*
Y025250D01*
X024686Y034236D02*
X025643Y033280D01*
X024686Y034236D02*
Y035347D01*
X025686D02*
Y035409D01*
X039111Y034882D02*
X039600Y034394D01*
Y026528D02*
Y034394D01*
X039324Y026252D02*
X039600Y026528D01*
X034741Y026252D02*
X039324D01*
X034111Y026882D02*
X034741Y026252D01*
X022789Y032748D02*
X023320Y033280D01*
X022781Y032748D02*
X022789D01*
X027119Y033280D02*
X027143Y033256D01*
Y032394D02*
Y033256D01*
X031765Y032605D02*
Y032807D01*
Y032605D02*
X032438Y031932D01*
X036398Y033221D02*
X036548D01*
X035778Y032601D02*
X036398Y033221D01*
X034558Y029598D02*
X035643D01*
X034085Y029126D02*
X034558Y029598D01*
X032904Y027945D02*
X033551Y028592D01*
X032536Y027945D02*
X032904D01*
X032496Y027906D02*
X032536Y027945D01*
X035422Y032690D02*
X035556Y032823D01*
X035899Y033166D01*
Y033457D01*
X034560Y034795D02*
X035899Y033457D01*
X034560Y034795D02*
Y035228D01*
X034324Y035465D02*
X034560Y035228D01*
X033694Y035465D02*
X034324D01*
X033111Y034882D02*
X033694Y035465D01*
X034768Y031844D02*
Y032481D01*
X035333Y033046D01*
X035648Y033361D01*
X035556Y032799D02*
Y032823D01*
X023781Y026748D02*
Y027034D01*
X023162Y027652D02*
X023781Y027034D01*
X035648Y033361D02*
Y033538D01*
X030111Y034882D02*
X030753Y034240D01*
X024322Y032292D02*
X026208D01*
X023162Y027652D02*
Y032002D01*
X023452Y032292D01*
X024322D01*
X023952Y027418D02*
X024781Y026589D01*
X023644Y027418D02*
X023952D01*
X023292Y027770D02*
X023644Y027418D01*
X023292Y027770D02*
Y031892D01*
X023532Y032132D01*
X025892D01*
X026132Y031892D01*
X026612D01*
X033997Y033491D02*
X033997D01*
X033774Y033269D02*
X033997Y033491D01*
X020781Y028748D02*
X021190Y028339D01*
Y026110D02*
Y028339D01*
Y026110D02*
X022702Y024598D01*
X033953Y033491D02*
X033997D01*
X023785Y024595D02*
Y025040D01*
X022232Y026592D02*
X023785Y025040D01*
X022232Y026592D02*
Y028002D01*
X021032Y029202D02*
X022232Y028002D01*
X020235Y029202D02*
X021032D01*
X019781Y028748D02*
X020235Y029202D01*
X019222Y032082D02*
X020447Y033307D01*
X020781Y029748D02*
X022451Y028078D01*
Y027554D02*
Y028078D01*
Y027554D02*
X023202Y026802D01*
X024875Y023239D02*
Y024595D01*
X030762Y024422D02*
Y025742D01*
X032754Y028240D02*
X033329Y028815D01*
X030930Y028240D02*
X032754D01*
X027056Y023250D02*
X027236Y023070D01*
X024875Y023239D02*
X025182Y022932D01*
X029098Y022792D02*
X029783Y023476D01*
X029902Y025622D02*
X030732Y026452D01*
Y026717D01*
X030726Y026722D02*
X030732Y026717D01*
X030726Y026722D02*
Y028036D01*
X030930Y028240D01*
X032660Y029360D02*
Y029483D01*
X032538Y029360D02*
X032660Y029483D01*
X028147Y024595D02*
X028669Y024072D01*
X029615Y023881D02*
X030221D01*
X030762Y024422D01*
X028669Y024072D02*
X029288D01*
X029662Y024447D01*
X029346Y023952D02*
X029782Y024388D01*
Y025742D01*
X029902Y024338D02*
Y025622D01*
X029302Y023569D02*
X029615Y023881D01*
X029182Y023618D02*
X029902Y024338D01*
X032215Y029800D02*
Y029928D01*
X032120Y030279D02*
Y030280D01*
X022782Y022792D02*
X029098D01*
X019222Y026352D02*
Y032082D01*
Y026352D02*
X022782Y022792D01*
X029302Y023272D02*
Y023569D01*
X025182Y022932D02*
X028962D01*
X029302Y023272D01*
X027236Y023070D02*
X028858D01*
X029182Y023394D01*
Y023618D01*
X031804Y029962D02*
X031992Y030151D01*
X035122Y027772D02*
X035342Y027992D01*
Y028137D01*
X035110Y028369D02*
X035342Y028137D01*
X035172Y027652D02*
X035652Y028132D01*
Y028273D01*
X035333Y028592D02*
X035652Y028273D01*
X025966Y024594D02*
Y024595D01*
Y024594D02*
X027056Y023504D01*
Y023250D02*
Y023504D01*
X026371Y024384D02*
Y024999D01*
Y024384D02*
X027278Y023476D01*
X027602D01*
X027056Y024595D02*
X027510D01*
X028152Y023952D01*
X029346D01*
X028228Y023476D02*
X028692D01*
X027652Y024052D02*
X028228Y023476D01*
X026892Y024052D02*
X027652D01*
X026562Y024382D02*
X026892Y024052D01*
X026562Y024382D02*
Y025172D01*
X029143Y032394D02*
X029891Y033142D01*
X032072D01*
X032302Y032912D01*
Y032513D02*
Y032912D01*
Y032513D02*
X032660Y032155D01*
X027143Y030740D02*
X027300D01*
X028212Y031652D01*
X029932D01*
X031087Y032807D01*
X031765D01*
X027143Y032394D02*
X027471D01*
X028212Y031652D01*
X032883Y032378D02*
X033282Y031979D01*
X034242Y030872D02*
Y031464D01*
X033106Y032601D02*
X034242Y031464D01*
X035502Y029972D02*
X036180D01*
X036446Y029705D01*
X033682Y029572D02*
Y030243D01*
X032215Y031710D02*
X033682Y030243D01*
X034682Y031202D02*
Y031470D01*
X033329Y032823D02*
X034682Y031470D01*
X036111Y026882D02*
X036472D01*
X037252Y027662D01*
Y028772D01*
X036922Y029102D02*
X037252Y028772D01*
X036604Y029102D02*
X036922D01*
X036224Y029483D02*
X036604Y029102D01*
X035682Y034087D02*
X036548Y033221D01*
X035682Y034087D02*
Y035012D01*
X032438Y031767D02*
Y031932D01*
X033262Y031792D02*
X033282D01*
X032538Y031767D02*
X034558Y029748D01*
Y029598D02*
Y029748D01*
X036669Y029928D02*
Y029943D01*
X023781Y031748D02*
X024317Y031212D01*
X025392D01*
X026832Y029772D01*
X029122D01*
X026562Y025172D02*
Y026622D01*
X030042Y030102D01*
X028652Y025412D02*
Y028542D01*
X030072Y029962D01*
X031804D01*
X029237Y024595D02*
Y028958D01*
X030079Y029800D01*
X024275Y029242D02*
X028862D01*
X023781Y028748D02*
X024275Y029242D01*
X035643Y029598D02*
X035991Y029250D01*
X032438Y031767D02*
X032538D01*
X033282Y031792D02*
Y031979D01*
X030079Y029800D02*
X032215D01*
X032538Y029360D02*
X032660D01*
X029662Y024447D02*
Y028652D01*
X030212Y029202D01*
X032380D01*
X032538Y029360D01*
X029782Y025742D02*
X030142Y026102D01*
X032635Y029012D02*
X032883Y029260D01*
X030512Y029012D02*
X032635D01*
X032611Y028542D02*
X033106Y029037D01*
X030612Y028542D02*
X032611D01*
X036042Y028252D02*
Y028328D01*
X035556Y028815D02*
X036042Y028328D01*
X029122Y029772D02*
X029912Y030562D01*
X031598Y030202D02*
X031770Y030374D01*
X031332Y030202D02*
X031598D01*
X034852Y031760D02*
X036669Y029943D01*
X034852Y031760D02*
Y031762D01*
X034768Y031844D02*
X034850Y031762D01*
X034852D01*
X034993Y032236D02*
X035556Y032799D01*
X035412Y032002D02*
X035531Y031883D01*
X035643D01*
X035742Y031982D01*
Y032119D01*
X036001Y032378D01*
X031748Y030876D02*
X032136D01*
X032292Y031032D01*
Y031187D01*
X031992Y031487D02*
X032292Y031187D01*
X031112Y030422D02*
X031332Y030202D01*
X031112Y030422D02*
Y031092D01*
X028862Y029242D02*
X030982Y031362D01*
X031262D01*
X031748Y030876D01*
X034197Y034182D02*
X034887Y033491D01*
X033382Y034062D02*
X033953Y033491D01*
X031811Y034182D02*
X034197D01*
X031111Y034882D02*
X031811Y034182D01*
X034684Y034502D02*
X035648Y033538D01*
X033947Y034502D02*
X033952Y034497D01*
X034271D01*
X034276Y034502D01*
X034684D01*
X033271Y034497D02*
X033276Y034502D01*
X033947D01*
X032496Y034497D02*
X033271D01*
X032111Y034882D02*
X032496Y034497D01*
X035110Y033269D02*
X035348Y033507D01*
Y033666D01*
X034662Y034352D02*
X035348Y033666D01*
X031932Y034352D02*
X034662D01*
X031622Y034662D02*
X031932Y034352D01*
X031622Y034662D02*
Y035162D01*
X036669Y031710D02*
X037162Y032202D01*
X037705D01*
X037867Y032039D01*
X037115Y031264D02*
X037622Y031772D01*
X037977D01*
X038103Y031646D01*
X035872Y031171D02*
X036892Y030151D01*
X035872Y031171D02*
Y031804D01*
X036224Y032155D01*
X037820Y036173D02*
X039111Y034882D01*
X025686Y035409D02*
X026450Y036173D01*
X037820D01*
X031002Y035782D02*
X031622Y035162D01*
X029847Y036007D02*
X034687D01*
X027119Y033280D02*
X029847Y036007D01*
X034687D02*
X035682Y035012D01*
X036446Y031932D02*
X036473D01*
X036446D02*
X036976Y032462D01*
X036224Y032155D02*
X036821Y032752D01*
X037273D01*
X037592Y032433D01*
X029912Y030562D02*
X030862Y031512D01*
X031522D01*
X031770Y031264D01*
X030142Y026102D02*
X030496Y026456D01*
Y027598D01*
X030212Y027882D02*
X030496Y027598D01*
X030212Y027882D02*
Y028712D01*
X030512Y029012D01*
X023202Y026522D02*
Y026802D01*
Y026522D02*
X024875Y024849D01*
Y024595D02*
Y024849D01*
X036452Y031062D02*
X036877Y031487D01*
X036892D01*
X030762Y025742D02*
X031522Y026502D01*
Y027032D01*
X033997Y028107D02*
Y028146D01*
X034286D02*
X034887D01*
X031418Y024595D02*
X031453D01*
X032616Y025758D01*
X031418Y024595D02*
X031564D01*
X033632Y027492D02*
X034286Y028146D01*
X034082Y027772D02*
X035122D01*
X034132Y027652D02*
X035172D01*
X033496Y027016D02*
X034132Y027652D01*
X033496Y025582D02*
Y027016D01*
X032509Y024595D02*
X033496Y025582D01*
X029783Y023476D02*
X030206D01*
X030772Y024042D01*
X032742D01*
X033062Y024362D01*
Y024762D01*
X033682Y025382D01*
Y027022D01*
X034092Y027432D01*
X036052D01*
X036312Y027692D01*
Y028181D01*
X036686Y028555D01*
X035991Y029250D02*
X036686Y028555D01*
X031652Y026992D02*
X032012Y027352D01*
X031522Y027032D02*
X032032Y027542D01*
X033662Y027352D02*
X034082Y027772D01*
X032032Y027542D02*
X032672D01*
X032012Y027352D02*
X032652D01*
X033037D02*
X033662D01*
X032616Y025758D02*
Y026931D01*
X033037Y027352D01*
X032496Y025956D02*
Y026981D01*
X032142Y025602D02*
X032496Y025956D01*
X033502Y027612D02*
X033997Y028107D01*
X032496Y026981D02*
X033007Y027492D01*
X033632D01*
X032652Y027352D02*
X032912Y027612D01*
X033502D01*
X032672Y027542D02*
X032862Y027732D01*
X033137D01*
X033774Y028369D01*
X022222Y033952D02*
Y034819D01*
X021577Y033307D02*
X022222Y033952D01*
X020447Y033307D02*
X021577D01*
X022222D02*
X022781Y032748D01*
X022222Y033307D02*
Y033952D01*
X030753Y034240D02*
X030931Y034062D01*
X033382D01*
X030042Y030102D02*
X030442Y030502D01*
X030822D01*
X031302Y025572D02*
X031652Y025922D01*
Y026992D01*
D16*
X022702Y024598D02*
D03*
X030873Y023476D02*
D03*
X033054D02*
D03*
X031964D02*
D03*
X034145D02*
D03*
X035235D02*
D03*
X029783D02*
D03*
X023239D02*
D03*
X028692D02*
D03*
X027602D02*
D03*
X025420D02*
D03*
X026511D02*
D03*
X024330D02*
D03*
X024875Y024595D02*
D03*
X027056D02*
D03*
X025966D02*
D03*
X028147D02*
D03*
X029237D02*
D03*
X023785D02*
D03*
X030328D02*
D03*
X035781D02*
D03*
X034690D02*
D03*
X032509D02*
D03*
X033600D02*
D03*
X031418D02*
D03*
D17*
X019985Y024035D02*
D03*
X038505D02*
D03*
D18*
X020781Y032748D02*
D03*
X021781D02*
D03*
X022781D02*
D03*
X023781D02*
D03*
X019781Y031748D02*
D03*
X020781D02*
D03*
X021781D02*
D03*
X022781D02*
D03*
X023781D02*
D03*
X024781D02*
D03*
X019781Y030748D02*
D03*
X020781D02*
D03*
X023781D02*
D03*
X024781D02*
D03*
X019781Y029748D02*
D03*
X020781D02*
D03*
X023781D02*
D03*
X024781D02*
D03*
X020781Y027748D02*
D03*
X021781D02*
D03*
X022781D02*
D03*
X023781D02*
D03*
X024781D02*
D03*
X019781D02*
D03*
X020781Y026748D02*
D03*
X021781D02*
D03*
X022781D02*
D03*
X023781D02*
D03*
X024781Y028748D02*
D03*
X023781D02*
D03*
X020781D02*
D03*
X019781D02*
D03*
D19*
X030111Y034882D02*
D03*
X031111D02*
D03*
X032111D02*
D03*
X033111D02*
D03*
X034111D02*
D03*
X035111D02*
D03*
X036111D02*
D03*
X037111D02*
D03*
X038111D02*
D03*
X039111D02*
D03*
Y026882D02*
D03*
X038111D02*
D03*
X037111D02*
D03*
X036111D02*
D03*
X035111D02*
D03*
X034111D02*
D03*
X033111D02*
D03*
X032111D02*
D03*
X031111D02*
D03*
X030111D02*
D03*
D20*
X019222Y035819D02*
D03*
Y034819D02*
D03*
X021222Y035819D02*
D03*
Y034819D02*
D03*
X020222D02*
D03*
Y035819D02*
D03*
X022222D02*
D03*
Y034819D02*
D03*
X023222D02*
D03*
Y035819D02*
D03*
X024686Y035347D02*
D03*
X025686D02*
D03*
X026686D02*
D03*
D21*
X037592Y032433D02*
D03*
X037867Y032039D02*
D03*
X038103Y031646D02*
D03*
X026612Y031892D02*
D03*
X026208Y032292D02*
D03*
X032142Y025602D02*
D03*
X028652Y025412D02*
D03*
X034242Y030872D02*
D03*
X035502Y029972D02*
D03*
X033682Y029572D02*
D03*
X034682Y031202D02*
D03*
X033262Y031792D02*
D03*
X030822Y030502D02*
D03*
X030612Y028542D02*
D03*
X036042Y028252D02*
D03*
X034852Y031762D02*
D03*
X034993Y032236D02*
D03*
X035412Y032002D02*
D03*
X031112Y031092D02*
D03*
X031002Y035782D02*
D03*
X036976Y032462D02*
D03*
X031542Y027412D02*
D03*
X036452Y031062D02*
D03*
X036672Y025672D02*
D03*
X038712Y029162D02*
D03*
X032832Y033442D02*
D03*
X030772Y029482D02*
D03*
X031302Y025572D02*
D03*
M02*
