G04 Layer_Color=2752767*
%FSAX24Y24*%
%MOIN*%
G70*
G01*
G75*
%ADD36C,0.0020*%
%ADD37C,0.0027*%
D36*
X022622Y024518D02*
Y024678D01*
X022782D01*
Y024518D01*
X022622D01*
X030793Y023396D02*
Y023556D01*
X030953D01*
Y023396D01*
X030793D01*
X032974D02*
Y023556D01*
X033134D01*
Y023396D01*
X032974D01*
X031884D02*
Y023556D01*
X032044D01*
Y023396D01*
X031884D01*
X034065D02*
Y023556D01*
X034225D01*
Y023396D01*
X034065D01*
X035155D02*
Y023556D01*
X035315D01*
Y023396D01*
X035155D01*
X029703D02*
Y023556D01*
X029863D01*
Y023396D01*
X029703D01*
X023159D02*
Y023556D01*
X023319D01*
Y023396D01*
X023159D01*
X028612D02*
Y023556D01*
X028772D01*
Y023396D01*
X028612D01*
X027522D02*
Y023556D01*
X027682D01*
Y023396D01*
X027522D01*
X025340D02*
Y023556D01*
X025500D01*
Y023396D01*
X025340D01*
X026431D02*
Y023556D01*
X026591D01*
Y023396D01*
X026431D01*
X024250D02*
Y023556D01*
X024410D01*
Y023396D01*
X024250D01*
X024795Y024515D02*
Y024675D01*
X024955D01*
Y024515D01*
X024795D01*
X026976D02*
Y024675D01*
X027136D01*
Y024515D01*
X026976D01*
X025886D02*
Y024675D01*
X026046D01*
Y024515D01*
X025886D01*
X028067D02*
Y024675D01*
X028227D01*
Y024515D01*
X028067D01*
X029157D02*
Y024675D01*
X029317D01*
Y024515D01*
X029157D01*
X023705D02*
Y024675D01*
X023865D01*
Y024515D01*
X023705D01*
X030248D02*
Y024675D01*
X030408D01*
Y024515D01*
X030248D01*
X035701D02*
Y024675D01*
X035861D01*
Y024515D01*
X035701D01*
X034610D02*
Y024675D01*
X034770D01*
Y024515D01*
X034610D01*
X032429D02*
Y024675D01*
X032589D01*
Y024515D01*
X032429D01*
X033520D02*
Y024675D01*
X033680D01*
Y024515D01*
X033520D01*
X031338D02*
Y024675D01*
X031498D01*
Y024515D01*
X031338D01*
X020781Y032668D02*
X020701Y032828D01*
X020861D01*
X020781Y032668D01*
X021781D02*
X021701Y032828D01*
X021861D01*
X021781Y032668D01*
X022781D02*
X022701Y032828D01*
X022861D01*
X022781Y032668D01*
X023781D02*
X023701Y032828D01*
X023861D01*
X023781Y032668D01*
X019781Y031668D02*
X019701Y031828D01*
X019861D01*
X019781Y031668D01*
X020781D02*
X020701Y031828D01*
X020861D01*
X020781Y031668D01*
X021781D02*
X021701Y031828D01*
X021861D01*
X021781Y031668D01*
X022781D02*
X022701Y031828D01*
X022861D01*
X022781Y031668D01*
X023781D02*
X023701Y031828D01*
X023861D01*
X023781Y031668D01*
X024781D02*
X024701Y031828D01*
X024861D01*
X024781Y031668D01*
X019781Y030668D02*
X019701Y030828D01*
X019861D01*
X019781Y030668D01*
X020781D02*
X020701Y030828D01*
X020861D01*
X020781Y030668D01*
X023781D02*
X023701Y030828D01*
X023861D01*
X023781Y030668D01*
X024781D02*
X024701Y030828D01*
X024861D01*
X024781Y030668D01*
X019781Y029668D02*
X019701Y029828D01*
X019861D01*
X019781Y029668D01*
X020781D02*
X020701Y029828D01*
X020861D01*
X020781Y029668D01*
X023781D02*
X023701Y029828D01*
X023861D01*
X023781Y029668D01*
X024781D02*
X024701Y029828D01*
X024861D01*
X024781Y029668D01*
X020781Y027668D02*
X020701Y027828D01*
X020861D01*
X020781Y027668D01*
X021781D02*
X021701Y027828D01*
X021861D01*
X021781Y027668D01*
X022781D02*
X022701Y027828D01*
X022861D01*
X022781Y027668D01*
X023781D02*
X023701Y027828D01*
X023861D01*
X023781Y027668D01*
X024781D02*
X024701Y027828D01*
X024861D01*
X024781Y027668D01*
X019781D02*
X019701Y027828D01*
X019861D01*
X019781Y027668D01*
X020781Y026668D02*
X020701Y026828D01*
X020861D01*
X020781Y026668D01*
X021781D02*
X021701Y026828D01*
X021861D01*
X021781Y026668D01*
X022781D02*
X022701Y026828D01*
X022861D01*
X022781Y026668D01*
X023781D02*
X023701Y026828D01*
X023861D01*
X023781Y026668D01*
X024781Y028668D02*
X024701Y028828D01*
X024861D01*
X024781Y028668D01*
X023781D02*
X023701Y028828D01*
X023861D01*
X023781Y028668D01*
X020781D02*
X020701Y028828D01*
X020861D01*
X020781Y028668D01*
X019781D02*
X019701Y028828D01*
X019861D01*
X019781Y028668D01*
X030111Y034802D02*
X030151Y034842D01*
X030191D01*
X030151Y034882D01*
X030191Y034922D01*
X030151D01*
X030111Y034962D01*
X030071Y034922D01*
X030031D01*
X030071Y034882D01*
X030031Y034842D01*
X030071D01*
X030111Y034802D01*
X031111D02*
X031151Y034842D01*
X031191D01*
X031151Y034882D01*
X031191Y034922D01*
X031151D01*
X031111Y034962D01*
X031071Y034922D01*
X031031D01*
X031071Y034882D01*
X031031Y034842D01*
X031071D01*
X031111Y034802D01*
X032111D02*
X032151Y034842D01*
X032191D01*
X032151Y034882D01*
X032191Y034922D01*
X032151D01*
X032111Y034962D01*
X032071Y034922D01*
X032031D01*
X032071Y034882D01*
X032031Y034842D01*
X032071D01*
X032111Y034802D01*
X033111D02*
X033151Y034842D01*
X033191D01*
X033151Y034882D01*
X033191Y034922D01*
X033151D01*
X033111Y034962D01*
X033071Y034922D01*
X033031D01*
X033071Y034882D01*
X033031Y034842D01*
X033071D01*
X033111Y034802D01*
X034111D02*
X034151Y034842D01*
X034191D01*
X034151Y034882D01*
X034191Y034922D01*
X034151D01*
X034111Y034962D01*
X034071Y034922D01*
X034031D01*
X034071Y034882D01*
X034031Y034842D01*
X034071D01*
X034111Y034802D01*
X035111D02*
X035151Y034842D01*
X035191D01*
X035151Y034882D01*
X035191Y034922D01*
X035151D01*
X035111Y034962D01*
X035071Y034922D01*
X035031D01*
X035071Y034882D01*
X035031Y034842D01*
X035071D01*
X035111Y034802D01*
X036111D02*
X036151Y034842D01*
X036191D01*
X036151Y034882D01*
X036191Y034922D01*
X036151D01*
X036111Y034962D01*
X036071Y034922D01*
X036031D01*
X036071Y034882D01*
X036031Y034842D01*
X036071D01*
X036111Y034802D01*
X037111D02*
X037151Y034842D01*
X037191D01*
X037151Y034882D01*
X037191Y034922D01*
X037151D01*
X037111Y034962D01*
X037071Y034922D01*
X037031D01*
X037071Y034882D01*
X037031Y034842D01*
X037071D01*
X037111Y034802D01*
X038111D02*
X038151Y034842D01*
X038191D01*
X038151Y034882D01*
X038191Y034922D01*
X038151D01*
X038111Y034962D01*
X038071Y034922D01*
X038031D01*
X038071Y034882D01*
X038031Y034842D01*
X038071D01*
X038111Y034802D01*
X039111D02*
X039151Y034842D01*
X039191D01*
X039151Y034882D01*
X039191Y034922D01*
X039151D01*
X039111Y034962D01*
X039071Y034922D01*
X039031D01*
X039071Y034882D01*
X039031Y034842D01*
X039071D01*
X039111Y034802D01*
Y026802D02*
X039151Y026842D01*
X039191D01*
X039151Y026882D01*
X039191Y026922D01*
X039151D01*
X039111Y026962D01*
X039071Y026922D01*
X039031D01*
X039071Y026882D01*
X039031Y026842D01*
X039071D01*
X039111Y026802D01*
X038111D02*
X038151Y026842D01*
X038191D01*
X038151Y026882D01*
X038191Y026922D01*
X038151D01*
X038111Y026962D01*
X038071Y026922D01*
X038031D01*
X038071Y026882D01*
X038031Y026842D01*
X038071D01*
X038111Y026802D01*
X037111D02*
X037151Y026842D01*
X037191D01*
X037151Y026882D01*
X037191Y026922D01*
X037151D01*
X037111Y026962D01*
X037071Y026922D01*
X037031D01*
X037071Y026882D01*
X037031Y026842D01*
X037071D01*
X037111Y026802D01*
X036111D02*
X036151Y026842D01*
X036191D01*
X036151Y026882D01*
X036191Y026922D01*
X036151D01*
X036111Y026962D01*
X036071Y026922D01*
X036031D01*
X036071Y026882D01*
X036031Y026842D01*
X036071D01*
X036111Y026802D01*
X035111D02*
X035151Y026842D01*
X035191D01*
X035151Y026882D01*
X035191Y026922D01*
X035151D01*
X035111Y026962D01*
X035071Y026922D01*
X035031D01*
X035071Y026882D01*
X035031Y026842D01*
X035071D01*
X035111Y026802D01*
X034111D02*
X034151Y026842D01*
X034191D01*
X034151Y026882D01*
X034191Y026922D01*
X034151D01*
X034111Y026962D01*
X034071Y026922D01*
X034031D01*
X034071Y026882D01*
X034031Y026842D01*
X034071D01*
X034111Y026802D01*
X033111D02*
X033151Y026842D01*
X033191D01*
X033151Y026882D01*
X033191Y026922D01*
X033151D01*
X033111Y026962D01*
X033071Y026922D01*
X033031D01*
X033071Y026882D01*
X033031Y026842D01*
X033071D01*
X033111Y026802D01*
X032111D02*
X032151Y026842D01*
X032191D01*
X032151Y026882D01*
X032191Y026922D01*
X032151D01*
X032111Y026962D01*
X032071Y026922D01*
X032031D01*
X032071Y026882D01*
X032031Y026842D01*
X032071D01*
X032111Y026802D01*
X031111D02*
X031151Y026842D01*
X031191D01*
X031151Y026882D01*
X031191Y026922D01*
X031151D01*
X031111Y026962D01*
X031071Y026922D01*
X031031D01*
X031071Y026882D01*
X031031Y026842D01*
X031071D01*
X031111Y026802D01*
X030111D02*
X030151Y026842D01*
X030191D01*
X030151Y026882D01*
X030191Y026922D01*
X030151D01*
X030111Y026962D01*
X030071Y026922D01*
X030031D01*
X030071Y026882D01*
X030031Y026842D01*
X030071D01*
X030111Y026802D01*
X019222Y035739D02*
X019262Y035779D01*
X019302D01*
X019262Y035819D01*
X019302Y035859D01*
X019262D01*
X019222Y035899D01*
X019182Y035859D01*
X019142D01*
X019182Y035819D01*
X019142Y035779D01*
X019182D01*
X019222Y035739D01*
Y034739D02*
X019262Y034779D01*
X019302D01*
X019262Y034819D01*
X019302Y034859D01*
X019262D01*
X019222Y034899D01*
X019182Y034859D01*
X019142D01*
X019182Y034819D01*
X019142Y034779D01*
X019182D01*
X019222Y034739D01*
X021222Y035739D02*
X021262Y035779D01*
X021302D01*
X021262Y035819D01*
X021302Y035859D01*
X021262D01*
X021222Y035899D01*
X021182Y035859D01*
X021142D01*
X021182Y035819D01*
X021142Y035779D01*
X021182D01*
X021222Y035739D01*
Y034739D02*
X021262Y034779D01*
X021302D01*
X021262Y034819D01*
X021302Y034859D01*
X021262D01*
X021222Y034899D01*
X021182Y034859D01*
X021142D01*
X021182Y034819D01*
X021142Y034779D01*
X021182D01*
X021222Y034739D01*
X020222D02*
X020262Y034779D01*
X020302D01*
X020262Y034819D01*
X020302Y034859D01*
X020262D01*
X020222Y034899D01*
X020182Y034859D01*
X020142D01*
X020182Y034819D01*
X020142Y034779D01*
X020182D01*
X020222Y034739D01*
Y035739D02*
X020262Y035779D01*
X020302D01*
X020262Y035819D01*
X020302Y035859D01*
X020262D01*
X020222Y035899D01*
X020182Y035859D01*
X020142D01*
X020182Y035819D01*
X020142Y035779D01*
X020182D01*
X020222Y035739D01*
X022222D02*
X022262Y035779D01*
X022302D01*
X022262Y035819D01*
X022302Y035859D01*
X022262D01*
X022222Y035899D01*
X022182Y035859D01*
X022142D01*
X022182Y035819D01*
X022142Y035779D01*
X022182D01*
X022222Y035739D01*
Y034739D02*
X022262Y034779D01*
X022302D01*
X022262Y034819D01*
X022302Y034859D01*
X022262D01*
X022222Y034899D01*
X022182Y034859D01*
X022142D01*
X022182Y034819D01*
X022142Y034779D01*
X022182D01*
X022222Y034739D01*
X023222D02*
X023262Y034779D01*
X023302D01*
X023262Y034819D01*
X023302Y034859D01*
X023262D01*
X023222Y034899D01*
X023182Y034859D01*
X023142D01*
X023182Y034819D01*
X023142Y034779D01*
X023182D01*
X023222Y034739D01*
Y035739D02*
X023262Y035779D01*
X023302D01*
X023262Y035819D01*
X023302Y035859D01*
X023262D01*
X023222Y035899D01*
X023182Y035859D01*
X023142D01*
X023182Y035819D01*
X023142Y035779D01*
X023182D01*
X023222Y035739D01*
X024686Y035266D02*
X024726Y035306D01*
X024766D01*
X024726Y035347D01*
X024766Y035387D01*
X024726D01*
X024686Y035426D01*
X024646Y035387D01*
X024606D01*
X024646Y035347D01*
X024606Y035306D01*
X024646D01*
X024686Y035266D01*
X025686D02*
X025726Y035306D01*
X025766D01*
X025726Y035347D01*
X025766Y035387D01*
X025726D01*
X025686Y035426D01*
X025646Y035387D01*
X025606D01*
X025646Y035347D01*
X025606Y035306D01*
X025646D01*
X025686Y035266D01*
X026686D02*
X026726Y035306D01*
X026766D01*
X026726Y035347D01*
X026766Y035387D01*
X026726D01*
X026686Y035426D01*
X026646Y035387D01*
X026606D01*
X026646Y035347D01*
X026606Y035306D01*
X026646D01*
X026686Y035266D01*
X037512Y032353D02*
X037552Y032433D01*
X037512Y032513D01*
X037592Y032473D01*
X037672Y032513D01*
X037632Y032433D01*
X037672Y032353D01*
X037592Y032393D01*
X037512Y032353D01*
X037787Y031959D02*
X037827Y032039D01*
X037787Y032119D01*
X037867Y032079D01*
X037947Y032119D01*
X037907Y032039D01*
X037947Y031959D01*
X037867Y031999D01*
X037787Y031959D01*
X038024Y031566D02*
X038063Y031646D01*
X038024Y031726D01*
X038103Y031686D01*
X038184Y031726D01*
X038143Y031646D01*
X038184Y031566D01*
X038103Y031606D01*
X038024Y031566D01*
X026532Y031812D02*
X026572Y031892D01*
X026532Y031972D01*
X026612Y031932D01*
X026692Y031972D01*
X026652Y031892D01*
X026692Y031812D01*
X026612Y031852D01*
X026532Y031812D01*
X026128Y032212D02*
X026168Y032292D01*
X026128Y032372D01*
X026208Y032332D01*
X026288Y032372D01*
X026248Y032292D01*
X026288Y032212D01*
X026208Y032252D01*
X026128Y032212D01*
X032062Y025522D02*
X032102Y025602D01*
X032062Y025682D01*
X032142Y025642D01*
X032222Y025682D01*
X032182Y025602D01*
X032222Y025522D01*
X032142Y025562D01*
X032062Y025522D01*
X028572Y025332D02*
X028612Y025412D01*
X028572Y025492D01*
X028652Y025452D01*
X028732Y025492D01*
X028692Y025412D01*
X028732Y025332D01*
X028652Y025372D01*
X028572Y025332D01*
X034162Y030792D02*
X034202Y030872D01*
X034162Y030952D01*
X034242Y030912D01*
X034322Y030952D01*
X034282Y030872D01*
X034322Y030792D01*
X034242Y030832D01*
X034162Y030792D01*
X035422Y029892D02*
X035462Y029972D01*
X035422Y030052D01*
X035502Y030012D01*
X035582Y030052D01*
X035542Y029972D01*
X035582Y029892D01*
X035502Y029932D01*
X035422Y029892D01*
X033602Y029492D02*
X033642Y029572D01*
X033602Y029652D01*
X033682Y029612D01*
X033762Y029652D01*
X033722Y029572D01*
X033762Y029492D01*
X033682Y029532D01*
X033602Y029492D01*
X034602Y031122D02*
X034642Y031202D01*
X034602Y031282D01*
X034682Y031242D01*
X034762Y031282D01*
X034722Y031202D01*
X034762Y031122D01*
X034682Y031162D01*
X034602Y031122D01*
X033182Y031712D02*
X033222Y031792D01*
X033182Y031872D01*
X033262Y031832D01*
X033342Y031872D01*
X033302Y031792D01*
X033342Y031712D01*
X033262Y031752D01*
X033182Y031712D01*
X030742Y030422D02*
X030782Y030502D01*
X030742Y030582D01*
X030822Y030542D01*
X030902Y030582D01*
X030862Y030502D01*
X030902Y030422D01*
X030822Y030462D01*
X030742Y030422D01*
X030532Y028462D02*
X030572Y028542D01*
X030532Y028622D01*
X030612Y028582D01*
X030692Y028622D01*
X030652Y028542D01*
X030692Y028462D01*
X030612Y028502D01*
X030532Y028462D01*
X035962Y028172D02*
X036002Y028252D01*
X035962Y028332D01*
X036042Y028292D01*
X036122Y028332D01*
X036082Y028252D01*
X036122Y028172D01*
X036042Y028212D01*
X035962Y028172D01*
X034772Y031682D02*
X034812Y031762D01*
X034772Y031842D01*
X034852Y031802D01*
X034932Y031842D01*
X034892Y031762D01*
X034932Y031682D01*
X034852Y031722D01*
X034772Y031682D01*
X034913Y032156D02*
X034953Y032236D01*
X034913Y032316D01*
X034993Y032276D01*
X035073Y032316D01*
X035033Y032236D01*
X035073Y032156D01*
X034993Y032196D01*
X034913Y032156D01*
X035332Y031922D02*
X035372Y032002D01*
X035332Y032082D01*
X035412Y032042D01*
X035492Y032082D01*
X035452Y032002D01*
X035492Y031922D01*
X035412Y031962D01*
X035332Y031922D01*
X031032Y031012D02*
X031072Y031092D01*
X031032Y031172D01*
X031112Y031132D01*
X031192Y031172D01*
X031152Y031092D01*
X031192Y031012D01*
X031112Y031052D01*
X031032Y031012D01*
X030922Y035702D02*
X030962Y035782D01*
X030922Y035862D01*
X031002Y035822D01*
X031082Y035862D01*
X031042Y035782D01*
X031082Y035702D01*
X031002Y035742D01*
X030922Y035702D01*
X036896Y032382D02*
X036936Y032462D01*
X036896Y032542D01*
X036976Y032502D01*
X037056Y032542D01*
X037016Y032462D01*
X037056Y032382D01*
X036976Y032422D01*
X036896Y032382D01*
X031462Y027332D02*
X031502Y027412D01*
X031462Y027492D01*
X031542Y027452D01*
X031622Y027492D01*
X031582Y027412D01*
X031622Y027332D01*
X031542Y027372D01*
X031462Y027332D01*
X036372Y030982D02*
X036412Y031062D01*
X036372Y031142D01*
X036452Y031102D01*
X036532Y031142D01*
X036492Y031062D01*
X036532Y030982D01*
X036452Y031022D01*
X036372Y030982D01*
X036592Y025592D02*
X036632Y025672D01*
X036592Y025752D01*
X036672Y025712D01*
X036752Y025752D01*
X036712Y025672D01*
X036752Y025592D01*
X036672Y025632D01*
X036592Y025592D01*
X038632Y029082D02*
X038672Y029162D01*
X038632Y029242D01*
X038712Y029202D01*
X038792Y029242D01*
X038752Y029162D01*
X038792Y029082D01*
X038712Y029122D01*
X038632Y029082D01*
X032752Y033362D02*
X032792Y033442D01*
X032752Y033522D01*
X032832Y033482D01*
X032912Y033522D01*
X032872Y033442D01*
X032912Y033362D01*
X032832Y033402D01*
X032752Y033362D01*
X030692Y029402D02*
X030732Y029482D01*
X030692Y029562D01*
X030772Y029522D01*
X030852Y029562D01*
X030812Y029482D01*
X030852Y029402D01*
X030772Y029442D01*
X030692Y029402D01*
X031222Y025492D02*
X031262Y025572D01*
X031222Y025652D01*
X031302Y025612D01*
X031382Y025652D01*
X031342Y025572D01*
X031382Y025492D01*
X031302Y025532D01*
X031222Y025492D01*
D37*
X020065Y024035D02*
G03*
X020065Y024035I-000080J000000D01*
G01*
X038585D02*
G03*
X038585Y024035I-000080J000000D01*
G01*
M02*
