G04 Layer_Physical_Order=2*
G04 Layer_Color=16711680*
%FSAX24Y24*%
%MOIN*%
G70*
G01*
G75*
%ADD15C,0.0060*%
%ADD16C,0.0630*%
%ADD17C,0.0600*%
%ADD18C,0.0480*%
%ADD19C,0.0590*%
%ADD20C,0.0591*%
%ADD21C,0.0270*%
D15*
X037867Y032039D02*
Y033390D01*
X038103Y031646D02*
Y033890D01*
Y027660D02*
Y031646D01*
X037206Y034052D02*
X037867Y033390D01*
X037111Y034882D02*
X038103Y033890D01*
Y027660D02*
X038496Y027267D01*
Y026436D02*
Y027267D01*
X036111Y034422D02*
Y034882D01*
Y034422D02*
X036482Y034052D01*
X037206D01*
X035111Y034882D02*
X036143Y033850D01*
X037237D01*
X035781Y024595D02*
X036289D01*
X020781Y027408D02*
Y027748D01*
Y027408D02*
X021111Y027078D01*
X022450Y027079D02*
X022781Y026748D01*
X021781Y027748D02*
Y028866D01*
X023300Y030386D01*
X022450Y027079D02*
Y029339D01*
X023379Y030268D01*
X023300Y030386D02*
X023302Y030388D01*
X022781Y027748D02*
Y029500D01*
X023429Y030148D01*
X030693Y035300D02*
X031111Y034882D01*
X029440Y035300D02*
X030693D01*
X026612Y031892D02*
X029602Y034882D01*
X030111D01*
X026432Y032292D02*
X029440Y035300D01*
X026208Y032292D02*
X026432D01*
X036130Y024070D02*
X038496Y026436D01*
X036080Y024190D02*
X037726Y025835D01*
Y027246D01*
X037867Y027387D01*
Y032039D01*
X037237Y033850D02*
X037594Y033494D01*
X036289Y024595D02*
X037594Y025900D01*
X033600Y024505D02*
Y024595D01*
Y024505D02*
X034035Y024070D01*
X036130D01*
X034690Y024595D02*
X035095Y024190D01*
X036080D01*
X019781Y026884D02*
Y027748D01*
Y026884D02*
X020702Y025962D01*
X020781Y026374D02*
Y026748D01*
X022702Y024598D02*
X023946Y025842D01*
X023785Y024595D02*
Y025195D01*
X020781Y026374D02*
X021042Y026112D01*
X034138Y026237D02*
X035781Y024595D01*
X033173Y026112D02*
X034690Y024595D01*
X021042Y026112D02*
X033173D01*
X023785Y025195D02*
X024312Y025722D01*
X019450Y029417D02*
X019781Y029748D01*
X019330Y029930D02*
X019672Y030272D01*
X020305D01*
X020781Y030748D01*
X025551Y024180D02*
X025966Y024595D01*
X026504Y024042D02*
X027056Y024595D01*
X027629D02*
X028147D01*
X026957Y023922D02*
X027629Y024595D01*
X019210Y030177D02*
X019781Y030748D01*
X028524Y023881D02*
X029237Y024595D01*
X027434Y023881D02*
X028524D01*
X026916Y023364D02*
X027434Y023881D01*
X026916Y023206D02*
Y023364D01*
X026712Y023002D02*
X026916Y023206D01*
X019090Y030524D02*
X019644Y031078D01*
X020111D01*
X020781Y031748D01*
X019450Y026824D02*
Y029417D01*
Y026824D02*
X022094Y024180D01*
X025551D01*
X019330Y026744D02*
Y029930D01*
Y026744D02*
X022032Y024042D01*
X026504D01*
X019210Y026664D02*
Y030177D01*
Y026664D02*
X021952Y023922D01*
X026957D01*
X019090Y026594D02*
Y030524D01*
Y026594D02*
X022682Y023002D01*
X026712D01*
X018962Y026552D02*
X022632Y022882D01*
X018962Y026552D02*
Y030930D01*
X019781Y031748D01*
X022632Y022882D02*
X028882D01*
X029212Y023212D01*
Y023479D01*
X030328Y024595D01*
X028652Y025412D02*
X028872Y025192D01*
X029730D01*
X030328Y024595D01*
X033382Y030012D02*
X034242Y030872D01*
X035111Y026882D02*
Y029181D01*
X035752Y029822D01*
Y030132D01*
X034682Y031202D02*
X035752Y030132D01*
X033262Y031772D02*
Y031792D01*
X023429Y030148D02*
X033158D01*
X023379Y030268D02*
X033025D01*
X030822Y030502D02*
X031992D01*
X033262Y031772D01*
X037594Y025900D02*
Y033494D01*
X030111Y026882D02*
Y027131D01*
X032992Y030012D01*
X033382D01*
X031111Y026882D02*
Y027962D01*
X033007Y029857D01*
X020702Y034362D02*
Y035299D01*
X021222Y035819D01*
X021111Y026450D02*
X021324Y026237D01*
X021111Y026450D02*
Y027078D01*
X021324Y026237D02*
X034138D01*
X021262Y026702D02*
X021546Y026418D01*
X021262Y026702D02*
Y033802D01*
X020702Y034362D02*
X021262Y033802D01*
X021546Y026418D02*
X028488D01*
X030612Y028542D01*
X033111Y026882D02*
X033601Y026392D01*
X036042Y027583D02*
Y028252D01*
X033601Y026392D02*
X035472D01*
X035622Y026542D01*
Y027163D01*
X036042Y027583D01*
X029617Y030388D02*
X030228D01*
X030702Y030862D01*
X031912D01*
X034111Y033061D01*
Y034882D01*
X033158Y030148D02*
X034772Y031762D01*
X034852D01*
X023302Y030388D02*
X029617D01*
X033025Y030268D02*
X034993Y032236D01*
X034982Y032652D02*
X035412Y032222D01*
Y032002D02*
Y032222D01*
X034111Y033063D02*
Y034882D01*
Y033063D02*
X034522Y032652D01*
X034982D01*
X030702Y031502D02*
X031112Y031092D01*
X026182Y031502D02*
X030702D01*
X023552Y034132D02*
X026182Y031502D01*
X022152Y034132D02*
X023552D01*
X021607Y034677D02*
X022152Y034132D01*
X021607Y034677D02*
Y035979D01*
X021381Y036204D02*
X021607Y035979D01*
X020062Y036204D02*
X021381D01*
X020060Y036202D02*
X020062Y036204D01*
X019605Y036202D02*
X020060D01*
X019222Y035819D02*
X019605Y036202D01*
X032111Y026882D02*
X032152Y026923D01*
Y028042D01*
X033682Y029572D01*
X022607Y036204D02*
X030580D01*
X022222Y035819D02*
X022607Y036204D01*
X030580D02*
X031002Y035782D01*
X036976Y032462D02*
Y032908D01*
X036232Y033652D02*
X036976Y032908D01*
X035602Y033652D02*
X036232D01*
X034552Y034702D02*
X035602Y033652D01*
X034552Y034702D02*
Y035182D01*
X034242Y035492D02*
X034552Y035182D01*
X027542Y035492D02*
X034242D01*
X027215Y035819D02*
X027542Y035492D01*
X023222Y035819D02*
X027215D01*
X024312Y025722D02*
X030872D01*
X032232Y025962D02*
X033600Y024595D01*
X031902Y025842D02*
X032142Y025602D01*
X020702Y025962D02*
X032232D01*
X023946Y025842D02*
X031902D01*
X031022Y025572D02*
X031302D01*
X031346D02*
X031379Y025605D01*
X031302Y025572D02*
X031346D01*
X030872Y025722D02*
X031022Y025572D01*
X033007Y029857D02*
X034957D01*
X035072Y029972D01*
X035502D01*
D16*
X022702Y024598D02*
D03*
X030873Y023476D02*
D03*
X033054D02*
D03*
X031964D02*
D03*
X034145D02*
D03*
X035235D02*
D03*
X029783D02*
D03*
X023239D02*
D03*
X028692D02*
D03*
X027602D02*
D03*
X025420D02*
D03*
X026511D02*
D03*
X024330D02*
D03*
X024875Y024595D02*
D03*
X027056D02*
D03*
X025966D02*
D03*
X028147D02*
D03*
X029237D02*
D03*
X023785D02*
D03*
X030328D02*
D03*
X035781D02*
D03*
X034690D02*
D03*
X032509D02*
D03*
X033600D02*
D03*
X031418D02*
D03*
D17*
X019985Y024035D02*
D03*
X038505D02*
D03*
D18*
X020781Y032748D02*
D03*
X021781D02*
D03*
X022781D02*
D03*
X023781D02*
D03*
X019781Y031748D02*
D03*
X020781D02*
D03*
X021781D02*
D03*
X022781D02*
D03*
X023781D02*
D03*
X024781D02*
D03*
X019781Y030748D02*
D03*
X020781D02*
D03*
X023781D02*
D03*
X024781D02*
D03*
X019781Y029748D02*
D03*
X020781D02*
D03*
X023781D02*
D03*
X024781D02*
D03*
X020781Y027748D02*
D03*
X021781D02*
D03*
X022781D02*
D03*
X023781D02*
D03*
X024781D02*
D03*
X019781D02*
D03*
X020781Y026748D02*
D03*
X021781D02*
D03*
X022781D02*
D03*
X023781D02*
D03*
X024781Y028748D02*
D03*
X023781D02*
D03*
X020781D02*
D03*
X019781D02*
D03*
D19*
X030111Y034882D02*
D03*
X031111D02*
D03*
X032111D02*
D03*
X033111D02*
D03*
X034111D02*
D03*
X035111D02*
D03*
X036111D02*
D03*
X037111D02*
D03*
X038111D02*
D03*
X039111D02*
D03*
Y026882D02*
D03*
X038111D02*
D03*
X037111D02*
D03*
X036111D02*
D03*
X035111D02*
D03*
X034111D02*
D03*
X033111D02*
D03*
X032111D02*
D03*
X031111D02*
D03*
X030111D02*
D03*
D20*
X019222Y035819D02*
D03*
Y034819D02*
D03*
X021222Y035819D02*
D03*
Y034819D02*
D03*
X020222D02*
D03*
Y035819D02*
D03*
X022222D02*
D03*
Y034819D02*
D03*
X023222D02*
D03*
Y035819D02*
D03*
X024686Y035347D02*
D03*
X025686D02*
D03*
X026686D02*
D03*
D21*
X037592Y032433D02*
D03*
X037867Y032039D02*
D03*
X038103Y031646D02*
D03*
X026612Y031892D02*
D03*
X026208Y032292D02*
D03*
X032142Y025602D02*
D03*
X028652Y025412D02*
D03*
X034242Y030872D02*
D03*
X035502Y029972D02*
D03*
X033682Y029572D02*
D03*
X034682Y031202D02*
D03*
X033262Y031792D02*
D03*
X030822Y030502D02*
D03*
X030612Y028542D02*
D03*
X036042Y028252D02*
D03*
X034852Y031762D02*
D03*
X034993Y032236D02*
D03*
X035412Y032002D02*
D03*
X031112Y031092D02*
D03*
X031002Y035782D02*
D03*
X036976Y032462D02*
D03*
X031542Y027412D02*
D03*
X036452Y031062D02*
D03*
X036672Y025672D02*
D03*
X038712Y029162D02*
D03*
X032832Y033442D02*
D03*
X030772Y029482D02*
D03*
X031302Y025572D02*
D03*
M02*
