G04 Layer_Color=8388736*
%FSAX24Y24*%
%MOIN*%
G70*
G01*
G75*
G04:AMPARAMS|DCode=26|XSize=29.7mil|YSize=65.1mil|CornerRadius=0mil|HoleSize=0mil|Usage=FLASHONLY|Rotation=45.000|XOffset=0mil|YOffset=0mil|HoleType=Round|Shape=Round|*
%AMOVALD26*
21,1,0.0354,0.0297,0.0000,0.0000,135.0*
1,1,0.0297,0.0125,-0.0125*
1,1,0.0297,-0.0125,0.0125*
%
%ADD26OVALD26*%

G04:AMPARAMS|DCode=27|XSize=29.7mil|YSize=65.1mil|CornerRadius=0mil|HoleSize=0mil|Usage=FLASHONLY|Rotation=135.000|XOffset=0mil|YOffset=0mil|HoleType=Round|Shape=Round|*
%AMOVALD27*
21,1,0.0354,0.0297,0.0000,0.0000,225.0*
1,1,0.0297,0.0125,0.0125*
1,1,0.0297,-0.0125,-0.0125*
%
%ADD27OVALD27*%

G04:AMPARAMS|DCode=28|XSize=47.4mil|YSize=43.4mil|CornerRadius=8.4mil|HoleSize=0mil|Usage=FLASHONLY|Rotation=180.000|XOffset=0mil|YOffset=0mil|HoleType=Round|Shape=RoundedRectangle|*
%AMROUNDEDRECTD28*
21,1,0.0474,0.0266,0,0,180.0*
21,1,0.0305,0.0434,0,0,180.0*
1,1,0.0169,-0.0153,0.0133*
1,1,0.0169,0.0153,0.0133*
1,1,0.0169,0.0153,-0.0133*
1,1,0.0169,-0.0153,-0.0133*
%
%ADD28ROUNDEDRECTD28*%
G04:AMPARAMS|DCode=29|XSize=47.4mil|YSize=43.4mil|CornerRadius=8.4mil|HoleSize=0mil|Usage=FLASHONLY|Rotation=270.000|XOffset=0mil|YOffset=0mil|HoleType=Round|Shape=RoundedRectangle|*
%AMROUNDEDRECTD29*
21,1,0.0474,0.0266,0,0,270.0*
21,1,0.0305,0.0434,0,0,270.0*
1,1,0.0169,-0.0133,-0.0153*
1,1,0.0169,-0.0133,0.0153*
1,1,0.0169,0.0133,0.0153*
1,1,0.0169,0.0133,-0.0153*
%
%ADD29ROUNDEDRECTD29*%
G04:AMPARAMS|DCode=30|XSize=76.8mil|YSize=84.6mil|CornerRadius=11.8mil|HoleSize=0mil|Usage=FLASHONLY|Rotation=0.000|XOffset=0mil|YOffset=0mil|HoleType=Round|Shape=RoundedRectangle|*
%AMROUNDEDRECTD30*
21,1,0.0768,0.0610,0,0,0.0*
21,1,0.0532,0.0846,0,0,0.0*
1,1,0.0236,0.0266,-0.0305*
1,1,0.0236,-0.0266,-0.0305*
1,1,0.0236,-0.0266,0.0305*
1,1,0.0236,0.0266,0.0305*
%
%ADD30ROUNDEDRECTD30*%
%ADD31C,0.0710*%
%ADD32C,0.0680*%
%ADD33C,0.0560*%
%ADD34C,0.0670*%
%ADD35C,0.0671*%
D26*
X031770Y031264D02*
D03*
X031992Y031487D02*
D03*
X032215Y031710D02*
D03*
X032438Y031932D02*
D03*
X032660Y032155D02*
D03*
X032883Y032378D02*
D03*
X033106Y032601D02*
D03*
X033329Y032823D02*
D03*
X033551Y033046D02*
D03*
X033774Y033269D02*
D03*
X033997Y033491D02*
D03*
X037115Y030374D02*
D03*
X036892Y030151D02*
D03*
X036669Y029928D02*
D03*
X036446Y029705D02*
D03*
X036224Y029483D02*
D03*
X036001Y029260D02*
D03*
X035778Y029037D02*
D03*
X035556Y028815D02*
D03*
X035333Y028592D02*
D03*
X035110Y028369D02*
D03*
X034887Y028146D02*
D03*
D27*
Y033491D02*
D03*
X035110Y033269D02*
D03*
X035333Y033046D02*
D03*
X035556Y032823D02*
D03*
X035778Y032601D02*
D03*
X036001Y032378D02*
D03*
X036224Y032155D02*
D03*
X036446Y031932D02*
D03*
X036669Y031710D02*
D03*
X036892Y031487D02*
D03*
X037115Y031264D02*
D03*
X033997Y028146D02*
D03*
X033774Y028369D02*
D03*
X033551Y028592D02*
D03*
X033329Y028815D02*
D03*
X033106Y029037D02*
D03*
X032883Y029260D02*
D03*
X032660Y029483D02*
D03*
X032438Y029705D02*
D03*
X032215Y029928D02*
D03*
X031992Y030151D02*
D03*
X031770Y030374D02*
D03*
D28*
X027119Y033280D02*
D03*
Y033949D02*
D03*
X036686Y028555D02*
D03*
Y027886D02*
D03*
X031765Y032807D02*
D03*
Y033476D02*
D03*
D29*
X032493Y027906D02*
D03*
X031824D02*
D03*
X036548Y033221D02*
D03*
X037218D02*
D03*
D30*
X027143Y030740D02*
D03*
X029143D02*
D03*
Y032394D02*
D03*
X027143D02*
D03*
D31*
X022702Y024598D02*
D03*
X030873Y023476D02*
D03*
X033054D02*
D03*
X031964D02*
D03*
X034145D02*
D03*
X035235D02*
D03*
X029783D02*
D03*
X023239D02*
D03*
X028692D02*
D03*
X027602D02*
D03*
X025420D02*
D03*
X026511D02*
D03*
X024330D02*
D03*
X024875Y024595D02*
D03*
X027056D02*
D03*
X025966D02*
D03*
X028147D02*
D03*
X029237D02*
D03*
X023785D02*
D03*
X030328D02*
D03*
X035781D02*
D03*
X034690D02*
D03*
X032509D02*
D03*
X033600D02*
D03*
X031418D02*
D03*
D32*
X019985Y024035D02*
D03*
X038505D02*
D03*
D33*
X020781Y032748D02*
D03*
X021781D02*
D03*
X022781D02*
D03*
X023781D02*
D03*
X019781Y031748D02*
D03*
X020781D02*
D03*
X021781D02*
D03*
X022781D02*
D03*
X023781D02*
D03*
X024781D02*
D03*
X019781Y030748D02*
D03*
X020781D02*
D03*
X023781D02*
D03*
X024781D02*
D03*
X019781Y029748D02*
D03*
X020781D02*
D03*
X023781D02*
D03*
X024781D02*
D03*
X020781Y027748D02*
D03*
X021781D02*
D03*
X022781D02*
D03*
X023781D02*
D03*
X024781D02*
D03*
X019781D02*
D03*
X020781Y026748D02*
D03*
X021781D02*
D03*
X022781D02*
D03*
X023781D02*
D03*
X024781Y028748D02*
D03*
X023781D02*
D03*
X020781D02*
D03*
X019781D02*
D03*
D34*
X030111Y034882D02*
D03*
X031111D02*
D03*
X032111D02*
D03*
X033111D02*
D03*
X034111D02*
D03*
X035111D02*
D03*
X036111D02*
D03*
X037111D02*
D03*
X038111D02*
D03*
X039111D02*
D03*
Y026882D02*
D03*
X038111D02*
D03*
X037111D02*
D03*
X036111D02*
D03*
X035111D02*
D03*
X034111D02*
D03*
X033111D02*
D03*
X032111D02*
D03*
X031111D02*
D03*
X030111D02*
D03*
D35*
X019222Y035819D02*
D03*
Y034819D02*
D03*
X021222Y035819D02*
D03*
Y034819D02*
D03*
X020222D02*
D03*
Y035819D02*
D03*
X022222D02*
D03*
Y034819D02*
D03*
X023222D02*
D03*
Y035819D02*
D03*
X024686Y035347D02*
D03*
X025686D02*
D03*
X026686D02*
D03*
M02*
