G04 Layer_Color=32896*
%FSAX24Y24*%
%MOIN*%
G70*
G01*
G75*
G36*
X033420Y023082D02*
X033431Y023080D01*
X033442Y023077D01*
X033451Y023074D01*
X033461Y023070D01*
X033469Y023065D01*
X033477Y023060D01*
X033484Y023056D01*
X033490Y023050D01*
X033495Y023046D01*
X033500Y023041D01*
X033504Y023037D01*
X033507Y023033D01*
X033509Y023031D01*
X033511Y023029D01*
X033511Y023029D01*
X033518Y023018D01*
X033524Y023007D01*
X033529Y022995D01*
X033533Y022983D01*
X033537Y022972D01*
X033540Y022959D01*
X033543Y022948D01*
X033545Y022937D01*
X033546Y022926D01*
X033547Y022916D01*
X033549Y022908D01*
X033549Y022900D01*
X033549Y022897D01*
Y022894D01*
X033550Y022891D01*
Y022889D01*
Y022888D01*
Y022886D01*
Y022886D01*
Y022885D01*
X033549Y022869D01*
X033548Y022854D01*
X033547Y022840D01*
X033545Y022827D01*
X033542Y022814D01*
X033540Y022803D01*
X033537Y022793D01*
X033534Y022784D01*
X033531Y022776D01*
X033528Y022769D01*
X033526Y022763D01*
X033524Y022758D01*
X033521Y022754D01*
X033520Y022752D01*
X033519Y022750D01*
X033519Y022750D01*
X033512Y022741D01*
X033506Y022734D01*
X033499Y022728D01*
X033492Y022723D01*
X033484Y022718D01*
X033476Y022715D01*
X033469Y022711D01*
X033462Y022709D01*
X033455Y022707D01*
X033449Y022705D01*
X033443Y022704D01*
X033439Y022704D01*
X033434Y022703D01*
X033431Y022703D01*
X033429D01*
X033420Y022703D01*
X033411Y022704D01*
X033403Y022707D01*
X033395Y022709D01*
X033388Y022711D01*
X033381Y022715D01*
X033375Y022718D01*
X033369Y022721D01*
X033364Y022724D01*
X033360Y022727D01*
X033356Y022730D01*
X033353Y022733D01*
X033350Y022736D01*
X033349Y022737D01*
X033348Y022738D01*
X033347Y022739D01*
X033342Y022746D01*
X033337Y022753D01*
X033332Y022761D01*
X033329Y022768D01*
X033325Y022776D01*
X033323Y022784D01*
X033321Y022791D01*
X033319Y022798D01*
X033318Y022804D01*
X033317Y022811D01*
X033316Y022816D01*
X033315Y022821D01*
Y022825D01*
X033315Y022828D01*
Y022829D01*
Y022830D01*
X033315Y022839D01*
X033316Y022847D01*
X033318Y022855D01*
X033319Y022863D01*
X033322Y022870D01*
X033324Y022876D01*
X033327Y022882D01*
X033330Y022888D01*
X033333Y022893D01*
X033335Y022897D01*
X033338Y022901D01*
X033340Y022904D01*
X033342Y022907D01*
X033343Y022909D01*
X033344Y022910D01*
X033345Y022910D01*
X033350Y022916D01*
X033356Y022921D01*
X033363Y022925D01*
X033368Y022929D01*
X033375Y022932D01*
X033381Y022935D01*
X033386Y022937D01*
X033392Y022939D01*
X033397Y022940D01*
X033402Y022941D01*
X033406Y022942D01*
X033410Y022943D01*
X033412D01*
X033415Y022943D01*
X033417D01*
X033426Y022943D01*
X033435Y022941D01*
X033443Y022939D01*
X033451Y022936D01*
X033458Y022932D01*
X033465Y022929D01*
X033471Y022924D01*
X033477Y022920D01*
X033482Y022916D01*
X033486Y022911D01*
X033490Y022907D01*
X033493Y022904D01*
X033496Y022901D01*
X033498Y022899D01*
X033499Y022897D01*
X033499Y022897D01*
X033499Y022910D01*
X033498Y022922D01*
X033496Y022933D01*
X033495Y022944D01*
X033493Y022954D01*
X033491Y022963D01*
X033489Y022971D01*
X033486Y022979D01*
X033484Y022985D01*
X033482Y022991D01*
X033480Y022996D01*
X033478Y023000D01*
X033477Y023003D01*
X033475Y023005D01*
X033475Y023007D01*
X033474Y023007D01*
X033469Y023014D01*
X033464Y023020D01*
X033458Y023025D01*
X033453Y023030D01*
X033447Y023033D01*
X033441Y023037D01*
X033435Y023039D01*
X033430Y023041D01*
X033424Y023043D01*
X033419Y023044D01*
X033415Y023045D01*
X033411Y023046D01*
X033408Y023046D01*
X033406Y023046D01*
X033404D01*
X033399Y023046D01*
X033393Y023046D01*
X033382Y023043D01*
X033371Y023040D01*
X033360Y023037D01*
X033355Y023035D01*
X033350Y023033D01*
X033346Y023032D01*
X033342Y023030D01*
X033339Y023029D01*
X033337Y023028D01*
X033335Y023028D01*
X033335Y023027D01*
Y023068D01*
X033343Y023071D01*
X033350Y023073D01*
X033358Y023075D01*
X033365Y023076D01*
X033371Y023078D01*
X033377Y023079D01*
X033383Y023080D01*
X033388Y023081D01*
X033392Y023081D01*
X033397Y023082D01*
X033400Y023082D01*
X033403D01*
X033405Y023082D01*
X033408D01*
X033420Y023082D01*
D02*
G37*
G36*
X037662Y022982D02*
X037671Y022982D01*
X037688Y022980D01*
X037696Y022979D01*
X037704Y022977D01*
X037711Y022975D01*
X037718Y022974D01*
X037725Y022972D01*
X037731Y022970D01*
X037736Y022969D01*
X037741Y022967D01*
X037745Y022966D01*
X037747Y022965D01*
X037749Y022965D01*
X037750Y022964D01*
Y022923D01*
X037741Y022927D01*
X037733Y022931D01*
X037725Y022934D01*
X037717Y022937D01*
X037710Y022939D01*
X037703Y022941D01*
X037696Y022942D01*
X037690Y022944D01*
X037684Y022945D01*
X037679Y022945D01*
X037674Y022946D01*
X037671Y022946D01*
X037667Y022947D01*
X037658D01*
X037653Y022946D01*
X037649Y022946D01*
X037645Y022945D01*
X037641Y022944D01*
X037638Y022943D01*
X037634Y022942D01*
X037632Y022941D01*
X037627Y022938D01*
X037624Y022937D01*
X037623Y022935D01*
X037622Y022935D01*
X037620Y022932D01*
X037618Y022929D01*
X037615Y022923D01*
X037613Y022917D01*
X037611Y022910D01*
X037610Y022904D01*
X037610Y022902D01*
Y022899D01*
X037609Y022898D01*
Y022896D01*
Y022895D01*
Y022895D01*
Y022872D01*
X037639D01*
X037650Y022872D01*
X037661Y022871D01*
X037671Y022870D01*
X037680Y022869D01*
X037688Y022866D01*
X037696Y022864D01*
X037703Y022862D01*
X037710Y022860D01*
X037716Y022857D01*
X037721Y022855D01*
X037726Y022853D01*
X037730Y022851D01*
X037732Y022849D01*
X037734Y022848D01*
X037736Y022847D01*
X037736Y022847D01*
X037742Y022842D01*
X037748Y022837D01*
X037753Y022832D01*
X037757Y022826D01*
X037761Y022821D01*
X037764Y022815D01*
X037766Y022810D01*
X037768Y022805D01*
X037769Y022800D01*
X037770Y022795D01*
X037772Y022791D01*
X037772Y022788D01*
X037772Y022785D01*
X037773Y022783D01*
Y022781D01*
Y022781D01*
X037772Y022775D01*
X037772Y022769D01*
X037770Y022764D01*
X037769Y022759D01*
X037765Y022750D01*
X037763Y022746D01*
X037761Y022743D01*
X037759Y022739D01*
X037757Y022736D01*
X037755Y022734D01*
X037753Y022732D01*
X037751Y022730D01*
X037750Y022729D01*
X037750Y022728D01*
X037749Y022728D01*
X037745Y022725D01*
X037740Y022721D01*
X037735Y022719D01*
X037730Y022716D01*
X037725Y022714D01*
X037720Y022712D01*
X037710Y022710D01*
X037706Y022709D01*
X037702Y022709D01*
X037698Y022708D01*
X037695Y022708D01*
X037693Y022708D01*
X037689D01*
X037681Y022708D01*
X037673Y022709D01*
X037665Y022711D01*
X037657Y022713D01*
X037650Y022716D01*
X037643Y022719D01*
X037636Y022722D01*
X037630Y022726D01*
X037624Y022729D01*
X037618Y022733D01*
X037614Y022736D01*
X037610Y022738D01*
X037606Y022741D01*
X037604Y022743D01*
X037603Y022744D01*
X037602Y022744D01*
X037599Y022738D01*
X037597Y022732D01*
X037593Y022727D01*
X037589Y022723D01*
X037586Y022719D01*
X037581Y022717D01*
X037577Y022714D01*
X037573Y022712D01*
X037570Y022711D01*
X037566Y022710D01*
X037563Y022709D01*
X037560Y022708D01*
X037557Y022708D01*
X037555Y022708D01*
X037554D01*
X037549Y022708D01*
X037543Y022709D01*
X037537Y022710D01*
X037531Y022711D01*
X037525Y022713D01*
X037523Y022713D01*
X037521Y022714D01*
X037520Y022715D01*
X037518Y022715D01*
X037518Y022715D01*
X037517D01*
X037522Y022744D01*
X037525Y022743D01*
X037529Y022743D01*
X037531Y022742D01*
X037533Y022742D01*
X037535Y022742D01*
X037537D01*
X037542Y022742D01*
X037546Y022743D01*
X037549Y022744D01*
X037552Y022746D01*
X037554Y022747D01*
X037555Y022749D01*
X037556Y022750D01*
X037556Y022750D01*
X037557Y022752D01*
X037558Y022754D01*
X037559Y022759D01*
X037560Y022764D01*
X037561Y022769D01*
X037561Y022775D01*
X037561Y022779D01*
Y022780D01*
Y022781D01*
Y022782D01*
Y022783D01*
Y022894D01*
X037562Y022903D01*
X037562Y022911D01*
X037563Y022918D01*
X037564Y022925D01*
X037566Y022931D01*
X037568Y022937D01*
X037570Y022942D01*
X037572Y022946D01*
X037574Y022950D01*
X037576Y022954D01*
X037578Y022956D01*
X037579Y022959D01*
X037580Y022961D01*
X037581Y022962D01*
X037582Y022962D01*
X037582Y022963D01*
X037587Y022966D01*
X037591Y022969D01*
X037597Y022972D01*
X037602Y022974D01*
X037608Y022976D01*
X037614Y022978D01*
X037626Y022980D01*
X037631Y022981D01*
X037637Y022982D01*
X037641Y022982D01*
X037645Y022982D01*
X037649Y022983D01*
X037654D01*
X037662Y022982D01*
D02*
G37*
G36*
X036168Y022724D02*
X036180Y022699D01*
X036182Y022693D01*
X036185Y022688D01*
X036187Y022684D01*
X036190Y022680D01*
X036192Y022677D01*
X036194Y022674D01*
X036196Y022671D01*
X036198Y022669D01*
X036201Y022665D01*
X036204Y022662D01*
X036205Y022661D01*
X036206Y022661D01*
X036209Y022659D01*
X036211Y022658D01*
X036218Y022656D01*
X036224Y022654D01*
X036230Y022653D01*
X036236Y022652D01*
X036239D01*
X036241Y022652D01*
X036265D01*
Y022616D01*
X036237D01*
X036230Y022616D01*
X036224Y022617D01*
X036218Y022618D01*
X036213Y022619D01*
X036208Y022620D01*
X036203Y022621D01*
X036199Y022623D01*
X036195Y022624D01*
X036192Y022625D01*
X036190Y022626D01*
X036187Y022627D01*
X036185Y022628D01*
X036184Y022629D01*
X036184Y022629D01*
X036183D01*
X036179Y022632D01*
X036175Y022636D01*
X036168Y022643D01*
X036162Y022651D01*
X036156Y022659D01*
X036152Y022667D01*
X036150Y022670D01*
X036149Y022673D01*
X036148Y022675D01*
X036147Y022677D01*
X036146Y022678D01*
Y022678D01*
X036012Y022977D01*
X036056D01*
X036143Y022779D01*
X036229Y022977D01*
X036279D01*
X036168Y022724D01*
D02*
G37*
G36*
X035044Y022845D02*
X034845D01*
Y022881D01*
X035044D01*
Y022845D01*
D02*
G37*
G36*
X037386Y022982D02*
X037392Y022980D01*
X037397Y022978D01*
X037402Y022974D01*
X037407Y022970D01*
X037412Y022965D01*
X037421Y022955D01*
X037425Y022950D01*
X037429Y022945D01*
X037432Y022940D01*
X037435Y022936D01*
X037437Y022932D01*
X037438Y022930D01*
X037439Y022928D01*
X037440Y022927D01*
Y022977D01*
X037482D01*
Y022712D01*
X037440D01*
Y022882D01*
X037436Y022891D01*
X037431Y022899D01*
X037428Y022906D01*
X037424Y022912D01*
X037420Y022917D01*
X037418Y022921D01*
X037417Y022922D01*
X037416Y022923D01*
X037415Y022923D01*
Y022924D01*
X037413Y022927D01*
X037410Y022929D01*
X037408Y022932D01*
X037406Y022933D01*
X037402Y022937D01*
X037398Y022939D01*
X037395Y022940D01*
X037393Y022940D01*
X037392Y022941D01*
X037391D01*
X037388Y022940D01*
X037385Y022939D01*
X037383Y022938D01*
X037381Y022936D01*
X037380Y022935D01*
X037379Y022933D01*
X037379Y022932D01*
Y022931D01*
X037378Y022930D01*
X037378Y022927D01*
X037377Y022922D01*
X037376Y022916D01*
X037376Y022910D01*
X037375Y022904D01*
Y022902D01*
Y022899D01*
Y022897D01*
Y022896D01*
Y022895D01*
Y022895D01*
Y022712D01*
X037333D01*
Y022883D01*
X037328Y022893D01*
X037323Y022902D01*
X037319Y022910D01*
X037314Y022916D01*
X037310Y022922D01*
X037306Y022927D01*
X037302Y022931D01*
X037298Y022934D01*
X037295Y022936D01*
X037292Y022938D01*
X037290Y022939D01*
X037287Y022940D01*
X037286Y022941D01*
X037285Y022941D01*
X037284D01*
X037280Y022941D01*
X037278Y022940D01*
X037276Y022939D01*
X037275Y022937D01*
X037273Y022936D01*
X037273Y022935D01*
X037272Y022933D01*
Y022933D01*
X037271Y022930D01*
X037270Y022925D01*
X037269Y022920D01*
X037269Y022915D01*
X037268Y022911D01*
Y022907D01*
Y022906D01*
Y022905D01*
Y022904D01*
Y022904D01*
Y022712D01*
X037226D01*
Y022906D01*
Y022913D01*
X037226Y022920D01*
X037227Y022926D01*
X037228Y022932D01*
X037229Y022937D01*
X037229Y022942D01*
X037231Y022946D01*
X037232Y022950D01*
X037233Y022954D01*
X037234Y022956D01*
X037235Y022959D01*
X037236Y022961D01*
X037236Y022962D01*
X037237Y022964D01*
X037237Y022964D01*
Y022964D01*
X037240Y022967D01*
X037242Y022971D01*
X037245Y022973D01*
X037248Y022975D01*
X037254Y022978D01*
X037260Y022980D01*
X037265Y022982D01*
X037267Y022982D01*
X037269Y022982D01*
X037271Y022983D01*
X037274D01*
X037280Y022982D01*
X037286Y022980D01*
X037292Y022978D01*
X037297Y022974D01*
X037302Y022970D01*
X037307Y022965D01*
X037312Y022960D01*
X037316Y022955D01*
X037320Y022950D01*
X037323Y022945D01*
X037326Y022940D01*
X037328Y022936D01*
X037330Y022932D01*
X037332Y022929D01*
X037333Y022928D01*
X037333Y022927D01*
X037335D01*
X037337Y022937D01*
X037339Y022945D01*
X037343Y022953D01*
X037346Y022959D01*
X037350Y022965D01*
X037354Y022969D01*
X037358Y022973D01*
X037362Y022976D01*
X037366Y022978D01*
X037369Y022980D01*
X037372Y022981D01*
X037375Y022982D01*
X037377Y022982D01*
X037379Y022983D01*
X037381D01*
X037386Y022982D01*
D02*
G37*
G36*
X033845Y023037D02*
Y023007D01*
X033749Y023029D01*
Y022748D01*
X033845D01*
Y022712D01*
X033604D01*
Y022748D01*
X033700D01*
Y023082D01*
X033845Y023037D01*
D02*
G37*
G36*
X038265Y022982D02*
X038273Y022982D01*
X038290Y022980D01*
X038298Y022979D01*
X038306Y022977D01*
X038314Y022975D01*
X038321Y022974D01*
X038327Y022972D01*
X038334Y022970D01*
X038339Y022969D01*
X038343Y022967D01*
X038347Y022966D01*
X038350Y022965D01*
X038351Y022965D01*
X038352Y022964D01*
Y022923D01*
X038344Y022927D01*
X038336Y022931D01*
X038327Y022934D01*
X038320Y022937D01*
X038312Y022939D01*
X038305Y022941D01*
X038299Y022942D01*
X038292Y022944D01*
X038286Y022945D01*
X038281Y022945D01*
X038277Y022946D01*
X038273Y022946D01*
X038270Y022947D01*
X038260D01*
X038256Y022946D01*
X038251Y022946D01*
X038247Y022945D01*
X038243Y022944D01*
X038240Y022943D01*
X038237Y022942D01*
X038234Y022941D01*
X038230Y022938D01*
X038227Y022937D01*
X038225Y022935D01*
X038224Y022935D01*
X038222Y022932D01*
X038220Y022929D01*
X038217Y022923D01*
X038215Y022917D01*
X038213Y022910D01*
X038213Y022904D01*
X038212Y022902D01*
Y022899D01*
X038212Y022898D01*
Y022896D01*
Y022895D01*
Y022895D01*
Y022872D01*
X038242D01*
X038253Y022872D01*
X038263Y022871D01*
X038273Y022870D01*
X038282Y022869D01*
X038291Y022866D01*
X038299Y022864D01*
X038306Y022862D01*
X038312Y022860D01*
X038318Y022857D01*
X038324Y022855D01*
X038328Y022853D01*
X038332Y022851D01*
X038335Y022849D01*
X038337Y022848D01*
X038338Y022847D01*
X038339Y022847D01*
X038345Y022842D01*
X038351Y022837D01*
X038356Y022832D01*
X038360Y022826D01*
X038363Y022821D01*
X038366Y022815D01*
X038368Y022810D01*
X038370Y022805D01*
X038372Y022800D01*
X038373Y022795D01*
X038374Y022791D01*
X038374Y022788D01*
X038375Y022785D01*
X038375Y022783D01*
Y022781D01*
Y022781D01*
X038375Y022775D01*
X038374Y022769D01*
X038373Y022764D01*
X038371Y022759D01*
X038368Y022750D01*
X038366Y022746D01*
X038363Y022743D01*
X038361Y022739D01*
X038359Y022736D01*
X038357Y022734D01*
X038355Y022732D01*
X038354Y022730D01*
X038353Y022729D01*
X038352Y022728D01*
X038352Y022728D01*
X038347Y022725D01*
X038342Y022721D01*
X038337Y022719D01*
X038332Y022716D01*
X038327Y022714D01*
X038322Y022712D01*
X038313Y022710D01*
X038308Y022709D01*
X038305Y022709D01*
X038301Y022708D01*
X038298Y022708D01*
X038295Y022708D01*
X038292D01*
X038284Y022708D01*
X038275Y022709D01*
X038267Y022711D01*
X038260Y022713D01*
X038252Y022716D01*
X038245Y022719D01*
X038238Y022722D01*
X038232Y022726D01*
X038226Y022729D01*
X038221Y022733D01*
X038216Y022736D01*
X038212Y022738D01*
X038209Y022741D01*
X038207Y022743D01*
X038205Y022744D01*
X038205Y022744D01*
X038202Y022738D01*
X038199Y022732D01*
X038196Y022727D01*
X038192Y022723D01*
X038188Y022719D01*
X038184Y022717D01*
X038180Y022714D01*
X038176Y022712D01*
X038172Y022711D01*
X038168Y022710D01*
X038165Y022709D01*
X038162Y022708D01*
X038160Y022708D01*
X038158Y022708D01*
X038156D01*
X038151Y022708D01*
X038145Y022709D01*
X038139Y022710D01*
X038133Y022711D01*
X038128Y022713D01*
X038125Y022713D01*
X038123Y022714D01*
X038122Y022715D01*
X038121Y022715D01*
X038120Y022715D01*
X038120D01*
X038124Y022744D01*
X038128Y022743D01*
X038131Y022743D01*
X038134Y022742D01*
X038136Y022742D01*
X038137Y022742D01*
X038139D01*
X038144Y022742D01*
X038148Y022743D01*
X038152Y022744D01*
X038154Y022746D01*
X038156Y022747D01*
X038158Y022749D01*
X038158Y022750D01*
X038159Y022750D01*
X038159Y022752D01*
X038161Y022754D01*
X038162Y022759D01*
X038163Y022764D01*
X038163Y022769D01*
X038163Y022775D01*
X038164Y022779D01*
Y022780D01*
Y022781D01*
Y022782D01*
Y022783D01*
Y022894D01*
X038164Y022903D01*
X038165Y022911D01*
X038166Y022918D01*
X038167Y022925D01*
X038168Y022931D01*
X038170Y022937D01*
X038172Y022942D01*
X038174Y022946D01*
X038176Y022950D01*
X038178Y022954D01*
X038180Y022956D01*
X038181Y022959D01*
X038183Y022961D01*
X038184Y022962D01*
X038184Y022962D01*
X038185Y022963D01*
X038189Y022966D01*
X038194Y022969D01*
X038199Y022972D01*
X038205Y022974D01*
X038210Y022976D01*
X038216Y022978D01*
X038228Y022980D01*
X038234Y022981D01*
X038239Y022982D01*
X038244Y022982D01*
X038248Y022982D01*
X038251Y022983D01*
X038256D01*
X038265Y022982D01*
D02*
G37*
G36*
X036559Y022709D02*
X036523D01*
X036511Y022742D01*
X036505Y022736D01*
X036499Y022730D01*
X036493Y022725D01*
X036487Y022721D01*
X036481Y022718D01*
X036475Y022715D01*
X036469Y022712D01*
X036463Y022710D01*
X036458Y022709D01*
X036453Y022708D01*
X036449Y022707D01*
X036446Y022707D01*
X036442Y022706D01*
X036440Y022706D01*
X036438D01*
X036429Y022706D01*
X036421Y022708D01*
X036412Y022710D01*
X036405Y022712D01*
X036398Y022715D01*
X036391Y022719D01*
X036385Y022722D01*
X036379Y022726D01*
X036374Y022730D01*
X036370Y022734D01*
X036367Y022737D01*
X036363Y022740D01*
X036361Y022743D01*
X036359Y022745D01*
X036358Y022746D01*
X036358Y022746D01*
X036352Y022754D01*
X036348Y022763D01*
X036344Y022771D01*
X036340Y022780D01*
X036337Y022789D01*
X036335Y022798D01*
X036332Y022806D01*
X036331Y022815D01*
X036329Y022823D01*
X036329Y022830D01*
X036328Y022836D01*
X036327Y022842D01*
Y022847D01*
X036327Y022850D01*
Y022851D01*
Y022852D01*
Y022853D01*
Y022853D01*
X036327Y022864D01*
X036328Y022874D01*
X036329Y022884D01*
X036331Y022893D01*
X036333Y022902D01*
X036335Y022909D01*
X036337Y022916D01*
X036340Y022923D01*
X036342Y022929D01*
X036345Y022933D01*
X036347Y022938D01*
X036349Y022941D01*
X036351Y022944D01*
X036352Y022946D01*
X036353Y022947D01*
X036353Y022948D01*
X036358Y022954D01*
X036363Y022959D01*
X036369Y022964D01*
X036375Y022968D01*
X036381Y022971D01*
X036387Y022974D01*
X036393Y022977D01*
X036398Y022978D01*
X036404Y022980D01*
X036408Y022981D01*
X036413Y022982D01*
X036416Y022982D01*
X036420Y022982D01*
X036422Y022983D01*
X036424D01*
X036433Y022982D01*
X036442Y022980D01*
X036451Y022978D01*
X036460Y022974D01*
X036467Y022970D01*
X036474Y022965D01*
X036481Y022960D01*
X036487Y022955D01*
X036492Y022950D01*
X036497Y022945D01*
X036501Y022940D01*
X036504Y022936D01*
X036507Y022932D01*
X036509Y022929D01*
X036510Y022928D01*
X036511Y022927D01*
Y023097D01*
X036559D01*
Y022709D01*
D02*
G37*
G36*
X035956Y022796D02*
X035955Y022787D01*
X035955Y022780D01*
X035954Y022773D01*
X035953Y022766D01*
X035951Y022760D01*
X035949Y022754D01*
X035946Y022749D01*
X035944Y022744D01*
X035941Y022739D01*
X035938Y022735D01*
X035935Y022731D01*
X035932Y022728D01*
X035925Y022722D01*
X035918Y022717D01*
X035911Y022713D01*
X035904Y022711D01*
X035898Y022709D01*
X035893Y022707D01*
X035888Y022707D01*
X035884Y022706D01*
X035882Y022706D01*
X035881D01*
X035870Y022707D01*
X035860Y022708D01*
X035851Y022711D01*
X035843Y022715D01*
X035834Y022719D01*
X035827Y022724D01*
X035820Y022729D01*
X035814Y022734D01*
X035809Y022739D01*
X035804Y022744D01*
X035800Y022749D01*
X035796Y022753D01*
X035794Y022757D01*
X035792Y022759D01*
X035790Y022761D01*
X035790Y022762D01*
Y022712D01*
X035742D01*
Y022977D01*
X035790D01*
Y022803D01*
X035797Y022794D01*
X035805Y022786D01*
X035812Y022779D01*
X035819Y022773D01*
X035825Y022768D01*
X035831Y022764D01*
X035837Y022761D01*
X035843Y022758D01*
X035848Y022756D01*
X035852Y022754D01*
X035856Y022753D01*
X035860Y022752D01*
X035862Y022752D01*
X035864Y022751D01*
X035866D01*
X035874Y022752D01*
X035880Y022753D01*
X035886Y022755D01*
X035890Y022758D01*
X035894Y022760D01*
X035896Y022762D01*
X035898Y022763D01*
X035898Y022764D01*
X035900Y022767D01*
X035901Y022770D01*
X035904Y022777D01*
X035905Y022784D01*
X035906Y022791D01*
X035907Y022798D01*
Y022801D01*
X035907Y022803D01*
Y022805D01*
Y022807D01*
Y022808D01*
Y022809D01*
Y022977D01*
X035956D01*
Y022796D01*
D02*
G37*
G36*
X034051Y023082D02*
X034061Y023080D01*
X034070Y023077D01*
X034079Y023074D01*
X034087Y023070D01*
X034094Y023066D01*
X034101Y023061D01*
X034107Y023057D01*
X034113Y023052D01*
X034118Y023047D01*
X034121Y023043D01*
X034125Y023039D01*
X034128Y023035D01*
X034129Y023033D01*
X034131Y023031D01*
X034131Y023031D01*
X034137Y023021D01*
X034142Y023010D01*
X034146Y022999D01*
X034150Y022988D01*
X034154Y022976D01*
X034156Y022964D01*
X034159Y022953D01*
X034160Y022942D01*
X034162Y022932D01*
X034163Y022923D01*
X034163Y022914D01*
X034164Y022907D01*
X034164Y022904D01*
Y022901D01*
X034164Y022899D01*
Y022897D01*
Y022895D01*
Y022894D01*
Y022893D01*
Y022893D01*
X034164Y022877D01*
X034163Y022862D01*
X034161Y022848D01*
X034159Y022835D01*
X034157Y022822D01*
X034154Y022811D01*
X034151Y022801D01*
X034148Y022791D01*
X034145Y022783D01*
X034142Y022775D01*
X034139Y022769D01*
X034136Y022764D01*
X034134Y022760D01*
X034133Y022757D01*
X034131Y022755D01*
X034131Y022754D01*
X034125Y022745D01*
X034118Y022737D01*
X034110Y022730D01*
X034103Y022725D01*
X034095Y022720D01*
X034088Y022716D01*
X034080Y022712D01*
X034074Y022710D01*
X034067Y022707D01*
X034061Y022706D01*
X034055Y022705D01*
X034050Y022704D01*
X034046Y022703D01*
X034043Y022703D01*
X034041D01*
X034030Y022704D01*
X034021Y022705D01*
X034012Y022708D01*
X034003Y022711D01*
X033995Y022715D01*
X033988Y022719D01*
X033981Y022724D01*
X033975Y022729D01*
X033969Y022734D01*
X033965Y022738D01*
X033960Y022743D01*
X033957Y022746D01*
X033955Y022750D01*
X033952Y022752D01*
X033951Y022754D01*
X033951Y022754D01*
X033945Y022764D01*
X033940Y022775D01*
X033935Y022786D01*
X033932Y022798D01*
X033928Y022809D01*
X033926Y022821D01*
X033923Y022832D01*
X033922Y022843D01*
X033920Y022853D01*
X033919Y022863D01*
X033918Y022871D01*
X033918Y022879D01*
Y022882D01*
Y022885D01*
X033917Y022887D01*
Y022889D01*
Y022891D01*
Y022892D01*
Y022893D01*
Y022893D01*
X033918Y022909D01*
X033919Y022924D01*
X033921Y022938D01*
X033923Y022951D01*
X033925Y022963D01*
X033928Y022974D01*
X033931Y022985D01*
X033934Y022994D01*
X033938Y023003D01*
X033940Y023010D01*
X033943Y023016D01*
X033946Y023021D01*
X033948Y023025D01*
X033950Y023028D01*
X033951Y023030D01*
X033951Y023031D01*
X033958Y023040D01*
X033965Y023048D01*
X033972Y023055D01*
X033979Y023060D01*
X033987Y023066D01*
X033994Y023070D01*
X034002Y023073D01*
X034009Y023076D01*
X034015Y023078D01*
X034021Y023080D01*
X034027Y023081D01*
X034032Y023082D01*
X034035Y023082D01*
X034038Y023082D01*
X034041D01*
X034051Y023082D01*
D02*
G37*
G36*
X039399Y022946D02*
X039404Y022953D01*
X039410Y022958D01*
X039416Y022963D01*
X039423Y022967D01*
X039429Y022971D01*
X039435Y022974D01*
X039441Y022976D01*
X039446Y022978D01*
X039451Y022980D01*
X039456Y022981D01*
X039460Y022982D01*
X039464Y022982D01*
X039467Y022982D01*
X039469Y022983D01*
X039471D01*
X039480Y022982D01*
X039489Y022981D01*
X039497Y022979D01*
X039505Y022977D01*
X039512Y022973D01*
X039518Y022970D01*
X039525Y022966D01*
X039530Y022962D01*
X039535Y022958D01*
X039539Y022955D01*
X039543Y022951D01*
X039546Y022948D01*
X039548Y022946D01*
X039550Y022944D01*
X039551Y022942D01*
X039552Y022942D01*
X039557Y022934D01*
X039562Y022925D01*
X039566Y022917D01*
X039569Y022908D01*
X039572Y022899D01*
X039575Y022890D01*
X039577Y022882D01*
X039578Y022873D01*
X039580Y022866D01*
X039580Y022859D01*
X039581Y022852D01*
X039582Y022846D01*
Y022842D01*
X039582Y022838D01*
Y022837D01*
Y022836D01*
Y022836D01*
Y022836D01*
X039582Y022825D01*
X039581Y022814D01*
X039580Y022805D01*
X039578Y022795D01*
X039576Y022787D01*
X039574Y022779D01*
X039572Y022772D01*
X039569Y022766D01*
X039567Y022760D01*
X039564Y022755D01*
X039562Y022751D01*
X039561Y022747D01*
X039559Y022744D01*
X039558Y022742D01*
X039557Y022741D01*
X039556Y022741D01*
X039551Y022734D01*
X039546Y022729D01*
X039540Y022725D01*
X039534Y022720D01*
X039528Y022717D01*
X039522Y022714D01*
X039517Y022712D01*
X039511Y022710D01*
X039506Y022709D01*
X039501Y022708D01*
X039497Y022707D01*
X039493Y022707D01*
X039490Y022706D01*
X039488Y022706D01*
X039486D01*
X039476Y022707D01*
X039467Y022708D01*
X039458Y022711D01*
X039450Y022715D01*
X039443Y022719D01*
X039435Y022724D01*
X039429Y022729D01*
X039423Y022734D01*
X039417Y022739D01*
X039412Y022744D01*
X039408Y022749D01*
X039405Y022753D01*
X039402Y022757D01*
X039400Y022759D01*
X039399Y022761D01*
X039399Y022762D01*
Y022712D01*
X039350D01*
Y023097D01*
X039399D01*
Y022946D01*
D02*
G37*
G36*
X038540Y022982D02*
X038549Y022980D01*
X038558Y022978D01*
X038566Y022974D01*
X038574Y022970D01*
X038581Y022965D01*
X038588Y022960D01*
X038594Y022955D01*
X038599Y022950D01*
X038604Y022945D01*
X038608Y022940D01*
X038611Y022936D01*
X038614Y022932D01*
X038616Y022930D01*
X038617Y022928D01*
X038617Y022927D01*
Y022977D01*
X038666D01*
Y022616D01*
X038617D01*
Y022742D01*
X038612Y022736D01*
X038606Y022730D01*
X038600Y022725D01*
X038594Y022721D01*
X038588Y022718D01*
X038582Y022715D01*
X038576Y022712D01*
X038570Y022710D01*
X038565Y022709D01*
X038560Y022708D01*
X038556Y022707D01*
X038553Y022707D01*
X038549Y022706D01*
X038547Y022706D01*
X038545D01*
X038536Y022706D01*
X038528Y022708D01*
X038519Y022710D01*
X038512Y022712D01*
X038505Y022715D01*
X038498Y022719D01*
X038492Y022722D01*
X038486Y022726D01*
X038481Y022730D01*
X038477Y022734D01*
X038473Y022737D01*
X038470Y022740D01*
X038468Y022743D01*
X038466Y022745D01*
X038465Y022746D01*
X038465Y022746D01*
X038459Y022754D01*
X038455Y022763D01*
X038451Y022771D01*
X038447Y022780D01*
X038444Y022789D01*
X038442Y022798D01*
X038439Y022806D01*
X038438Y022815D01*
X038436Y022823D01*
X038436Y022830D01*
X038435Y022836D01*
X038434Y022842D01*
Y022847D01*
X038434Y022850D01*
Y022851D01*
Y022852D01*
Y022853D01*
Y022853D01*
X038434Y022864D01*
X038435Y022874D01*
X038436Y022884D01*
X038438Y022893D01*
X038440Y022902D01*
X038442Y022909D01*
X038444Y022916D01*
X038447Y022923D01*
X038449Y022929D01*
X038452Y022933D01*
X038454Y022938D01*
X038456Y022941D01*
X038458Y022944D01*
X038459Y022946D01*
X038460Y022947D01*
X038460Y022948D01*
X038465Y022954D01*
X038470Y022959D01*
X038476Y022964D01*
X038482Y022968D01*
X038488Y022971D01*
X038494Y022974D01*
X038500Y022977D01*
X038505Y022978D01*
X038511Y022980D01*
X038515Y022981D01*
X038520Y022982D01*
X038523Y022982D01*
X038527Y022982D01*
X038529Y022983D01*
X038531D01*
X038540Y022982D01*
D02*
G37*
G36*
X037089Y022712D02*
X037059D01*
X037060Y022701D01*
X037061Y022694D01*
X037063Y022688D01*
X037064Y022683D01*
X037066Y022678D01*
X037069Y022674D01*
X037071Y022670D01*
X037074Y022667D01*
X037076Y022665D01*
X037079Y022663D01*
X037081Y022661D01*
X037083Y022660D01*
X037085Y022659D01*
X037087Y022659D01*
X037088Y022658D01*
X037089Y022658D01*
X037089D01*
Y022634D01*
X037082Y022634D01*
X037076Y022635D01*
X037071Y022637D01*
X037065Y022640D01*
X037060Y022642D01*
X037056Y022645D01*
X037051Y022649D01*
X037047Y022652D01*
X037040Y022660D01*
X037034Y022669D01*
X037030Y022679D01*
X037026Y022689D01*
X037023Y022699D01*
X037021Y022708D01*
X037019Y022717D01*
X037018Y022725D01*
X037017Y022728D01*
X037017Y022731D01*
Y022734D01*
X037017Y022736D01*
Y022738D01*
Y022740D01*
Y022740D01*
Y022741D01*
Y022784D01*
X037089D01*
Y022712D01*
D02*
G37*
G36*
X039163Y022982D02*
X039172Y022981D01*
X039181Y022979D01*
X039190Y022977D01*
X039198Y022973D01*
X039205Y022970D01*
X039212Y022966D01*
X039218Y022963D01*
X039223Y022959D01*
X039228Y022955D01*
X039233Y022952D01*
X039236Y022949D01*
X039239Y022947D01*
X039241Y022945D01*
X039242Y022943D01*
X039242Y022943D01*
X039249Y022935D01*
X039254Y022927D01*
X039259Y022919D01*
X039263Y022910D01*
X039266Y022902D01*
X039269Y022893D01*
X039271Y022885D01*
X039273Y022877D01*
X039275Y022870D01*
X039276Y022863D01*
X039276Y022857D01*
X039277Y022852D01*
X039277Y022847D01*
X039277Y022844D01*
Y022842D01*
Y022842D01*
Y022841D01*
X039277Y022829D01*
X039276Y022818D01*
X039274Y022808D01*
X039272Y022798D01*
X039269Y022789D01*
X039266Y022781D01*
X039263Y022773D01*
X039259Y022767D01*
X039256Y022761D01*
X039253Y022755D01*
X039249Y022751D01*
X039247Y022747D01*
X039245Y022745D01*
X039242Y022743D01*
X039241Y022741D01*
X039241Y022741D01*
X039234Y022735D01*
X039226Y022729D01*
X039218Y022725D01*
X039209Y022721D01*
X039200Y022717D01*
X039192Y022715D01*
X039183Y022712D01*
X039175Y022710D01*
X039167Y022709D01*
X039160Y022708D01*
X039153Y022707D01*
X039147Y022707D01*
X039143Y022706D01*
X039139Y022706D01*
X039136D01*
X039128Y022706D01*
X039120Y022707D01*
X039104Y022708D01*
X039088Y022711D01*
X039081Y022712D01*
X039074Y022714D01*
X039068Y022716D01*
X039062Y022717D01*
X039057Y022718D01*
X039052Y022720D01*
X039049Y022721D01*
X039046Y022721D01*
X039045Y022722D01*
X039044D01*
Y022760D01*
X039053Y022757D01*
X039061Y022754D01*
X039069Y022752D01*
X039077Y022750D01*
X039084Y022748D01*
X039091Y022746D01*
X039098Y022745D01*
X039104Y022744D01*
X039110Y022743D01*
X039114Y022743D01*
X039119Y022743D01*
X039122Y022742D01*
X039125Y022742D01*
X039129D01*
X039138Y022742D01*
X039146Y022743D01*
X039153Y022744D01*
X039160Y022746D01*
X039166Y022748D01*
X039172Y022750D01*
X039178Y022753D01*
X039183Y022756D01*
X039188Y022759D01*
X039192Y022763D01*
X039196Y022767D01*
X039200Y022770D01*
X039207Y022778D01*
X039212Y022787D01*
X039216Y022795D01*
X039220Y022803D01*
X039222Y022811D01*
X039224Y022818D01*
X039225Y022823D01*
X039225Y022826D01*
X039226Y022828D01*
Y022830D01*
X039226Y022831D01*
Y022831D01*
Y022832D01*
X039046D01*
Y022847D01*
X039046Y022860D01*
X039047Y022871D01*
X039048Y022882D01*
X039050Y022893D01*
X039052Y022902D01*
X039054Y022910D01*
X039056Y022918D01*
X039059Y022924D01*
X039061Y022930D01*
X039063Y022935D01*
X039066Y022940D01*
X039068Y022943D01*
X039069Y022946D01*
X039071Y022948D01*
X039071Y022949D01*
X039072Y022949D01*
X039077Y022955D01*
X039083Y022961D01*
X039089Y022965D01*
X039095Y022969D01*
X039102Y022972D01*
X039109Y022975D01*
X039115Y022977D01*
X039122Y022979D01*
X039128Y022980D01*
X039134Y022981D01*
X039139Y022982D01*
X039144Y022982D01*
X039147D01*
X039150Y022983D01*
X039153D01*
X039163Y022982D01*
D02*
G37*
G36*
X035654Y022796D02*
X035654Y022787D01*
X035654Y022780D01*
X035653Y022773D01*
X035651Y022766D01*
X035650Y022760D01*
X035648Y022754D01*
X035645Y022749D01*
X035643Y022744D01*
X035640Y022739D01*
X035637Y022735D01*
X035634Y022731D01*
X035631Y022728D01*
X035624Y022722D01*
X035617Y022717D01*
X035610Y022713D01*
X035603Y022711D01*
X035597Y022709D01*
X035591Y022707D01*
X035586Y022707D01*
X035583Y022706D01*
X035581Y022706D01*
X035580D01*
X035569Y022707D01*
X035559Y022708D01*
X035550Y022711D01*
X035541Y022715D01*
X035533Y022719D01*
X035526Y022724D01*
X035519Y022729D01*
X035513Y022734D01*
X035507Y022739D01*
X035502Y022744D01*
X035498Y022749D01*
X035495Y022753D01*
X035492Y022757D01*
X035490Y022759D01*
X035489Y022761D01*
X035489Y022762D01*
Y022712D01*
X035441D01*
Y022977D01*
X035489D01*
Y022803D01*
X035496Y022794D01*
X035504Y022786D01*
X035510Y022779D01*
X035517Y022773D01*
X035524Y022768D01*
X035530Y022764D01*
X035536Y022761D01*
X035542Y022758D01*
X035547Y022756D01*
X035551Y022754D01*
X035555Y022753D01*
X035558Y022752D01*
X035561Y022752D01*
X035563Y022751D01*
X035565D01*
X035573Y022752D01*
X035579Y022753D01*
X035585Y022755D01*
X035589Y022758D01*
X035593Y022760D01*
X035595Y022762D01*
X035597Y022763D01*
X035597Y022764D01*
X035599Y022767D01*
X035600Y022770D01*
X035602Y022777D01*
X035604Y022784D01*
X035605Y022791D01*
X035606Y022798D01*
Y022801D01*
X035606Y022803D01*
Y022805D01*
Y022807D01*
Y022808D01*
Y022809D01*
Y022977D01*
X035654D01*
Y022796D01*
D02*
G37*
G36*
X037896Y022982D02*
X037907Y022980D01*
X037917Y022978D01*
X037927Y022974D01*
X037935Y022970D01*
X037944Y022965D01*
X037951Y022960D01*
X037957Y022955D01*
X037963Y022950D01*
X037969Y022945D01*
X037973Y022940D01*
X037977Y022936D01*
X037980Y022932D01*
X037982Y022929D01*
X037983Y022928D01*
X037984Y022927D01*
Y022977D01*
X038032D01*
Y022712D01*
X037984D01*
Y022884D01*
X037979Y022890D01*
X037975Y022895D01*
X037971Y022900D01*
X037967Y022904D01*
X037963Y022908D01*
X037960Y022912D01*
X037956Y022915D01*
X037953Y022918D01*
X037951Y022920D01*
X037948Y022922D01*
X037946Y022924D01*
X037944Y022925D01*
X037942Y022927D01*
X037941Y022927D01*
X037940Y022928D01*
X037940D01*
X037932Y022932D01*
X037924Y022935D01*
X037916Y022938D01*
X037908Y022939D01*
X037902Y022940D01*
X037899Y022940D01*
X037896D01*
X037895Y022941D01*
X037892D01*
X037885Y022940D01*
X037882Y022940D01*
X037879Y022939D01*
X037876Y022939D01*
X037874Y022938D01*
X037872Y022938D01*
X037872D01*
Y022902D01*
X037836D01*
Y022977D01*
X037846Y022979D01*
X037855Y022980D01*
X037864Y022981D01*
X037871Y022982D01*
X037874Y022982D01*
X037879D01*
X037882Y022983D01*
X037885D01*
X037896Y022982D01*
D02*
G37*
G36*
X038802Y023103D02*
X038813Y023102D01*
X038822Y023101D01*
X038830Y023100D01*
X038838Y023098D01*
X038845Y023096D01*
X038851Y023093D01*
X038857Y023091D01*
X038861Y023089D01*
X038866Y023086D01*
X038869Y023084D01*
X038872Y023083D01*
X038874Y023081D01*
X038875Y023080D01*
X038876Y023079D01*
X038877Y023079D01*
X038881Y023074D01*
X038885Y023068D01*
X038888Y023063D01*
X038892Y023056D01*
X038894Y023049D01*
X038896Y023043D01*
X038898Y023036D01*
X038899Y023030D01*
X038900Y023023D01*
X038901Y023018D01*
X038902Y023013D01*
X038902Y023008D01*
Y023004D01*
X038902Y023001D01*
Y022999D01*
Y022999D01*
Y022971D01*
X038975D01*
Y022935D01*
X038902D01*
Y022712D01*
X038854D01*
Y022935D01*
X038728D01*
Y022971D01*
X038854D01*
Y023004D01*
X038854Y023010D01*
X038853Y023016D01*
X038853Y023022D01*
X038852Y023026D01*
X038851Y023031D01*
X038850Y023035D01*
X038848Y023039D01*
X038847Y023042D01*
X038845Y023045D01*
X038844Y023047D01*
X038843Y023049D01*
X038842Y023050D01*
X038841Y023052D01*
X038840Y023052D01*
X038840Y023053D01*
X038836Y023056D01*
X038833Y023058D01*
X038830Y023060D01*
X038825Y023062D01*
X038817Y023064D01*
X038808Y023066D01*
X038801Y023067D01*
X038797Y023067D01*
X038794D01*
X038792Y023067D01*
X038788D01*
X038775Y023067D01*
X038763Y023065D01*
X038751Y023064D01*
X038745Y023062D01*
X038740Y023061D01*
X038735Y023060D01*
X038731Y023059D01*
X038727Y023058D01*
X038724Y023057D01*
X038721Y023056D01*
X038720Y023056D01*
X038718Y023055D01*
X038718D01*
Y023093D01*
X038731Y023096D01*
X038744Y023099D01*
X038757Y023101D01*
X038763Y023102D01*
X038768Y023102D01*
X038773Y023102D01*
X038777Y023103D01*
X038782Y023103D01*
X038785Y023103D01*
X038792D01*
X038802Y023103D01*
D02*
G37*
G36*
X034363Y023082D02*
X034371Y023082D01*
X034387Y023079D01*
X034395Y023078D01*
X034402Y023076D01*
X034408Y023075D01*
X034415Y023073D01*
X034421Y023071D01*
X034426Y023069D01*
X034431Y023068D01*
X034435Y023066D01*
X034438Y023065D01*
X034441Y023064D01*
X034442Y023064D01*
X034443Y023063D01*
Y023021D01*
X034434Y023025D01*
X034425Y023029D01*
X034417Y023032D01*
X034409Y023035D01*
X034402Y023038D01*
X034395Y023040D01*
X034389Y023042D01*
X034383Y023043D01*
X034378Y023044D01*
X034373Y023045D01*
X034369Y023046D01*
X034366Y023046D01*
X034363Y023046D01*
X034360D01*
X034355Y023046D01*
X034349Y023046D01*
X034340Y023043D01*
X034332Y023041D01*
X034326Y023038D01*
X034323Y023036D01*
X034321Y023034D01*
X034319Y023033D01*
X034317Y023031D01*
X034315Y023030D01*
X034314Y023029D01*
X034314Y023029D01*
X034314Y023029D01*
X034311Y023025D01*
X034308Y023022D01*
X034306Y023018D01*
X034304Y023014D01*
X034300Y023006D01*
X034298Y022999D01*
X034297Y022992D01*
X034297Y022989D01*
Y022987D01*
X034296Y022985D01*
Y022983D01*
Y022982D01*
Y022982D01*
X034297Y022974D01*
X034298Y022965D01*
X034300Y022957D01*
X034303Y022949D01*
X034307Y022941D01*
X034311Y022934D01*
X034315Y022927D01*
X034319Y022920D01*
X034323Y022914D01*
X034327Y022908D01*
X034331Y022904D01*
X034334Y022900D01*
X034337Y022897D01*
X034339Y022894D01*
X034341Y022893D01*
X034341Y022892D01*
X034363Y022870D01*
X034374Y022859D01*
X034384Y022848D01*
X034393Y022838D01*
X034402Y022828D01*
X034410Y022818D01*
X034417Y022808D01*
X034424Y022799D01*
X034430Y022791D01*
X034435Y022783D01*
X034439Y022776D01*
X034443Y022769D01*
X034446Y022764D01*
X034449Y022760D01*
X034450Y022757D01*
X034451Y022755D01*
X034452Y022754D01*
Y022712D01*
X034247D01*
Y022754D01*
X034395D01*
X034392Y022763D01*
X034389Y022772D01*
X034384Y022781D01*
X034379Y022791D01*
X034374Y022799D01*
X034368Y022807D01*
X034363Y022815D01*
X034357Y022823D01*
X034351Y022830D01*
X034345Y022836D01*
X034340Y022842D01*
X034336Y022846D01*
X034332Y022850D01*
X034329Y022853D01*
X034328Y022854D01*
X034327Y022855D01*
X034306Y022874D01*
X034300Y022880D01*
X034295Y022886D01*
X034289Y022891D01*
X034285Y022896D01*
X034281Y022901D01*
X034277Y022906D01*
X034273Y022910D01*
X034270Y022914D01*
X034267Y022918D01*
X034265Y022921D01*
X034263Y022924D01*
X034262Y022926D01*
X034261Y022928D01*
X034260Y022929D01*
X034259Y022930D01*
Y022930D01*
X034254Y022940D01*
X034251Y022949D01*
X034248Y022958D01*
X034247Y022967D01*
X034246Y022971D01*
X034246Y022974D01*
X034245Y022977D01*
Y022979D01*
X034245Y022981D01*
Y022983D01*
Y022984D01*
Y022984D01*
X034245Y022992D01*
X034246Y023000D01*
X034248Y023007D01*
X034250Y023014D01*
X034252Y023020D01*
X034254Y023026D01*
X034257Y023031D01*
X034260Y023036D01*
X034263Y023041D01*
X034265Y023045D01*
X034268Y023048D01*
X034270Y023050D01*
X034272Y023052D01*
X034274Y023054D01*
X034275Y023055D01*
X034275Y023055D01*
X034281Y023060D01*
X034287Y023064D01*
X034294Y023068D01*
X034300Y023071D01*
X034307Y023074D01*
X034314Y023076D01*
X034320Y023077D01*
X034326Y023079D01*
X034332Y023080D01*
X034338Y023081D01*
X034342Y023082D01*
X034347Y023082D01*
X034350Y023082D01*
X034355D01*
X034363Y023082D01*
D02*
G37*
G36*
X032357Y033383D02*
X032387Y033379D01*
X032416Y033374D01*
X032442Y033366D01*
X032467Y033358D01*
X032488Y033349D01*
X032509Y033339D01*
X032528Y033329D01*
X032545Y033318D01*
X032559Y033308D01*
X032572Y033299D01*
X032581Y033290D01*
X032589Y033283D01*
X032596Y033278D01*
X032599Y033274D01*
X032600Y033273D01*
X032617Y033251D01*
X032633Y033228D01*
X032646Y033203D01*
X032657Y033178D01*
X032667Y033153D01*
X032676Y033128D01*
X032682Y033103D01*
X032687Y033079D01*
X032691Y033056D01*
X032695Y033035D01*
X032697Y033017D01*
X032698Y033001D01*
X032699Y032987D01*
X032700Y032977D01*
Y032971D01*
Y032970D01*
Y032969D01*
X032699Y032933D01*
X032696Y032900D01*
X032690Y032869D01*
X032684Y032840D01*
X032677Y032813D01*
X032668Y032788D01*
X032659Y032765D01*
X032650Y032744D01*
X032641Y032725D01*
X032632Y032709D01*
X032624Y032696D01*
X032616Y032685D01*
X032610Y032675D01*
X032605Y032669D01*
X032602Y032665D01*
X032601Y032664D01*
X032581Y032644D01*
X032560Y032627D01*
X032538Y032613D01*
X032515Y032600D01*
X032493Y032589D01*
X032470Y032580D01*
X032447Y032573D01*
X032425Y032567D01*
X032405Y032563D01*
X032386Y032560D01*
X032369Y032556D01*
X032354Y032555D01*
X032342Y032554D01*
X032332Y032553D01*
X032325D01*
X032293Y032554D01*
X032262Y032559D01*
X032234Y032564D01*
X032208Y032571D01*
X032183Y032579D01*
X032162Y032589D01*
X032141Y032598D01*
X032122Y032609D01*
X032105Y032619D01*
X032091Y032628D01*
X032078Y032638D01*
X032069Y032646D01*
X032061Y032653D01*
X032054Y032658D01*
X032051Y032663D01*
X032050Y032664D01*
X032032Y032686D01*
X032017Y032708D01*
X032003Y032733D01*
X031992Y032758D01*
X031982Y032783D01*
X031974Y032809D01*
X031968Y032834D01*
X031963Y032858D01*
X031959Y032880D01*
X031955Y032902D01*
X031953Y032921D01*
X031951Y032936D01*
Y032950D01*
X031950Y032960D01*
Y032967D01*
Y032968D01*
Y032969D01*
X031951Y033004D01*
X031954Y033037D01*
X031960Y033069D01*
X031966Y033098D01*
X031973Y033125D01*
X031981Y033150D01*
X031991Y033173D01*
X032000Y033193D01*
X032010Y033211D01*
X032019Y033227D01*
X032027Y033241D01*
X032035Y033252D01*
X032041Y033261D01*
X032046Y033267D01*
X032049Y033272D01*
X032050Y033273D01*
X032070Y033292D01*
X032091Y033309D01*
X032113Y033325D01*
X032136Y033337D01*
X032158Y033348D01*
X032181Y033357D01*
X032203Y033364D01*
X032225Y033371D01*
X032246Y033375D01*
X032265Y033378D01*
X032281Y033381D01*
X032296Y033382D01*
X032308Y033383D01*
X032318Y033384D01*
X032325D01*
X032357Y033383D01*
D02*
G37*
G36*
X038676Y033533D02*
X038703Y033531D01*
X038728Y033528D01*
X038752Y033524D01*
X038773Y033517D01*
X038794Y033512D01*
X038811Y033506D01*
X038828Y033500D01*
X038843Y033492D01*
X038855Y033486D01*
X038866Y033481D01*
X038875Y033476D01*
X038881Y033470D01*
X038886Y033467D01*
X038890Y033465D01*
X038891Y033464D01*
X038905Y033451D01*
X038919Y033436D01*
X038930Y033421D01*
X038939Y033404D01*
X038948Y033388D01*
X038955Y033372D01*
X038960Y033355D01*
X038965Y033339D01*
X038969Y033325D01*
X038972Y033311D01*
X038973Y033299D01*
X038975Y033288D01*
Y033280D01*
X038976Y033273D01*
Y033269D01*
Y033267D01*
X038975Y033251D01*
X038974Y033234D01*
X038968Y033205D01*
X038963Y033191D01*
X038958Y033179D01*
X038953Y033168D01*
X038948Y033157D01*
X038944Y033149D01*
X038938Y033140D01*
X038933Y033133D01*
X038929Y033128D01*
X038926Y033124D01*
X038923Y033121D01*
X038922Y033119D01*
X038921Y033118D01*
X038909Y033107D01*
X038896Y033097D01*
X038881Y033086D01*
X038866Y033077D01*
X038832Y033058D01*
X038799Y033042D01*
X038783Y033034D01*
X038769Y033028D01*
X038755Y033023D01*
X038744Y033018D01*
X038733Y033013D01*
X038726Y033010D01*
X038722Y033009D01*
X038720Y033008D01*
X038623Y032973D01*
X038602Y032965D01*
X038582Y032957D01*
X038565Y032950D01*
X038549Y032943D01*
X038535Y032936D01*
X038522Y032930D01*
X038511Y032924D01*
X038501Y032919D01*
X038493Y032915D01*
X038486Y032910D01*
X038480Y032906D01*
X038475Y032903D01*
X038472Y032901D01*
X038470Y032899D01*
X038468Y032898D01*
X038455Y032885D01*
X038446Y032872D01*
X038439Y032857D01*
X038435Y032844D01*
X038431Y032831D01*
X038430Y032822D01*
X038429Y032818D01*
Y032815D01*
Y032814D01*
Y032813D01*
X038430Y032799D01*
X038433Y032788D01*
X038436Y032775D01*
X038440Y032765D01*
X038450Y032745D01*
X038462Y032729D01*
X038473Y032716D01*
X038484Y032706D01*
X038488Y032703D01*
X038491Y032701D01*
X038493Y032699D01*
X038494D01*
X038520Y032686D01*
X038547Y032675D01*
X038576Y032668D01*
X038603Y032663D01*
X038616Y032661D01*
X038627Y032660D01*
X038638Y032658D01*
X038647D01*
X038654Y032657D01*
X038665D01*
X038689Y032658D01*
X038715Y032662D01*
X038741Y032666D01*
X038768Y032671D01*
X038821Y032685D01*
X038846Y032692D01*
X038871Y032700D01*
X038894Y032708D01*
X038914Y032716D01*
X038934Y032723D01*
X038950Y032729D01*
X038963Y032734D01*
X038974Y032740D01*
X038980Y032742D01*
X038981Y032743D01*
X038982D01*
Y032600D01*
X038947Y032591D01*
X038913Y032584D01*
X038882Y032576D01*
X038852Y032571D01*
X038825Y032566D01*
X038799Y032562D01*
X038775Y032559D01*
X038753Y032555D01*
X038734Y032553D01*
X038718Y032552D01*
X038703Y032551D01*
X038691Y032550D01*
X038681Y032549D01*
X038669D01*
X038637Y032550D01*
X038606Y032552D01*
X038578Y032556D01*
X038551Y032562D01*
X038526Y032567D01*
X038503Y032573D01*
X038482Y032580D01*
X038464Y032588D01*
X038447Y032595D01*
X038431Y032602D01*
X038419Y032609D01*
X038409Y032614D01*
X038400Y032619D01*
X038395Y032623D01*
X038391Y032625D01*
X038390Y032626D01*
X038371Y032642D01*
X038355Y032657D01*
X038341Y032674D01*
X038329Y032692D01*
X038319Y032709D01*
X038311Y032727D01*
X038303Y032744D01*
X038298Y032761D01*
X038293Y032776D01*
X038290Y032790D01*
X038288Y032803D01*
X038287Y032814D01*
X038286Y032823D01*
X038285Y032829D01*
Y032834D01*
Y032835D01*
X038286Y032851D01*
X038287Y032867D01*
X038290Y032881D01*
X038293Y032895D01*
X038303Y032921D01*
X038317Y032946D01*
X038333Y032968D01*
X038349Y032987D01*
X038368Y033005D01*
X038387Y033021D01*
X038406Y033034D01*
X038425Y033047D01*
X038442Y033056D01*
X038457Y033064D01*
X038471Y033071D01*
X038481Y033075D01*
X038485Y033076D01*
X038488Y033077D01*
X038489Y033078D01*
X038490D01*
X038577Y033108D01*
X038670Y033140D01*
X038688Y033147D01*
X038704Y033153D01*
X038719Y033159D01*
X038732Y033165D01*
X038745Y033171D01*
X038756Y033177D01*
X038766Y033182D01*
X038775Y033186D01*
X038782Y033191D01*
X038789Y033195D01*
X038794Y033199D01*
X038798Y033202D01*
X038803Y033206D01*
X038805Y033207D01*
X038818Y033220D01*
X038826Y033234D01*
X038832Y033249D01*
X038837Y033262D01*
X038840Y033275D01*
X038841Y033284D01*
X038842Y033288D01*
Y033291D01*
Y033292D01*
Y033293D01*
X038841Y033306D01*
X038840Y033316D01*
X038833Y033337D01*
X038824Y033355D01*
X038811Y033369D01*
X038796Y033383D01*
X038779Y033393D01*
X038763Y033402D01*
X038744Y033409D01*
X038725Y033414D01*
X038707Y033418D01*
X038692Y033422D01*
X038676Y033424D01*
X038664Y033425D01*
X038654Y033426D01*
X038646D01*
X038622Y033425D01*
X038598Y033423D01*
X038574Y033419D01*
X038549Y033416D01*
X038502Y033406D01*
X038479Y033401D01*
X038457Y033394D01*
X038438Y033388D01*
X038420Y033383D01*
X038403Y033378D01*
X038390Y033373D01*
X038378Y033369D01*
X038370Y033366D01*
X038365Y033364D01*
X038363Y033363D01*
Y033489D01*
X038392Y033498D01*
X038420Y033504D01*
X038448Y033510D01*
X038474Y033515D01*
X038499Y033519D01*
X038522Y033524D01*
X038545Y033526D01*
X038565Y033529D01*
X038583Y033530D01*
X038599Y033532D01*
X038614Y033533D01*
X038626D01*
X038635Y033534D01*
X038648D01*
X038676Y033533D01*
D02*
G37*
G36*
X035965D02*
X035992Y033531D01*
X036017Y033528D01*
X036041Y033524D01*
X036062Y033517D01*
X036083Y033512D01*
X036101Y033506D01*
X036117Y033500D01*
X036132Y033492D01*
X036144Y033486D01*
X036155Y033481D01*
X036164Y033476D01*
X036170Y033470D01*
X036176Y033467D01*
X036179Y033465D01*
X036180Y033464D01*
X036194Y033451D01*
X036208Y033436D01*
X036219Y033421D01*
X036229Y033404D01*
X036237Y033388D01*
X036244Y033372D01*
X036250Y033355D01*
X036255Y033339D01*
X036258Y033325D01*
X036261Y033311D01*
X036262Y033299D01*
X036264Y033288D01*
Y033280D01*
X036265Y033273D01*
Y033269D01*
Y033267D01*
X036264Y033251D01*
X036263Y033234D01*
X036257Y033205D01*
X036253Y033191D01*
X036247Y033179D01*
X036242Y033168D01*
X036237Y033157D01*
X036233Y033149D01*
X036228Y033140D01*
X036222Y033133D01*
X036218Y033128D01*
X036215Y033124D01*
X036212Y033121D01*
X036211Y033119D01*
X036210Y033118D01*
X036199Y033107D01*
X036185Y033097D01*
X036170Y033086D01*
X036155Y033077D01*
X036121Y033058D01*
X036088Y033042D01*
X036073Y033034D01*
X036058Y033028D01*
X036044Y033023D01*
X036033Y033018D01*
X036023Y033013D01*
X036015Y033010D01*
X036011Y033009D01*
X036009Y033008D01*
X035912Y032973D01*
X035891Y032965D01*
X035872Y032957D01*
X035854Y032950D01*
X035838Y032943D01*
X035824Y032936D01*
X035811Y032930D01*
X035800Y032924D01*
X035790Y032919D01*
X035782Y032915D01*
X035775Y032910D01*
X035770Y032906D01*
X035764Y032903D01*
X035761Y032901D01*
X035759Y032899D01*
X035757Y032898D01*
X035745Y032885D01*
X035735Y032872D01*
X035728Y032857D01*
X035724Y032844D01*
X035721Y032831D01*
X035720Y032822D01*
X035719Y032818D01*
Y032815D01*
Y032814D01*
Y032813D01*
X035720Y032799D01*
X035722Y032788D01*
X035725Y032775D01*
X035729Y032765D01*
X035739Y032745D01*
X035751Y032729D01*
X035762Y032716D01*
X035773Y032706D01*
X035777Y032703D01*
X035780Y032701D01*
X035782Y032699D01*
X035783D01*
X035809Y032686D01*
X035836Y032675D01*
X035865Y032668D01*
X035892Y032663D01*
X035905Y032661D01*
X035916Y032660D01*
X035927Y032658D01*
X035936D01*
X035943Y032657D01*
X035954D01*
X035978Y032658D01*
X036004Y032662D01*
X036030Y032666D01*
X036057Y032671D01*
X036110Y032685D01*
X036135Y032692D01*
X036160Y032700D01*
X036183Y032708D01*
X036204Y032716D01*
X036224Y032723D01*
X036239Y032729D01*
X036253Y032734D01*
X036263Y032740D01*
X036269Y032742D01*
X036270Y032743D01*
X036271D01*
Y032600D01*
X036236Y032591D01*
X036203Y032584D01*
X036171Y032576D01*
X036141Y032571D01*
X036114Y032566D01*
X036088Y032562D01*
X036064Y032559D01*
X036042Y032555D01*
X036024Y032553D01*
X036007Y032552D01*
X035992Y032551D01*
X035980Y032550D01*
X035971Y032549D01*
X035958D01*
X035926Y032550D01*
X035896Y032552D01*
X035867Y032556D01*
X035840Y032562D01*
X035815Y032567D01*
X035793Y032573D01*
X035772Y032580D01*
X035753Y032588D01*
X035736Y032595D01*
X035721Y032602D01*
X035708Y032609D01*
X035698Y032614D01*
X035689Y032619D01*
X035684Y032623D01*
X035680Y032625D01*
X035679Y032626D01*
X035660Y032642D01*
X035645Y032657D01*
X035630Y032674D01*
X035619Y032692D01*
X035608Y032709D01*
X035600Y032727D01*
X035593Y032744D01*
X035587Y032761D01*
X035582Y032776D01*
X035579Y032790D01*
X035577Y032803D01*
X035576Y032814D01*
X035575Y032823D01*
X035574Y032829D01*
Y032834D01*
Y032835D01*
X035575Y032851D01*
X035576Y032867D01*
X035579Y032881D01*
X035582Y032895D01*
X035593Y032921D01*
X035606Y032946D01*
X035622Y032968D01*
X035638Y032987D01*
X035657Y033005D01*
X035676Y033021D01*
X035696Y033034D01*
X035714Y033047D01*
X035731Y033056D01*
X035747Y033064D01*
X035760Y033071D01*
X035771Y033075D01*
X035774Y033076D01*
X035777Y033077D01*
X035778Y033078D01*
X035779D01*
X035866Y033108D01*
X035959Y033140D01*
X035977Y033147D01*
X035993Y033153D01*
X036008Y033159D01*
X036022Y033165D01*
X036034Y033171D01*
X036045Y033177D01*
X036055Y033182D01*
X036064Y033186D01*
X036072Y033191D01*
X036078Y033195D01*
X036083Y033199D01*
X036087Y033202D01*
X036092Y033206D01*
X036094Y033207D01*
X036107Y033220D01*
X036115Y033234D01*
X036121Y033249D01*
X036127Y033262D01*
X036129Y033275D01*
X036130Y033284D01*
X036131Y033288D01*
Y033291D01*
Y033292D01*
Y033293D01*
X036130Y033306D01*
X036129Y033316D01*
X036123Y033337D01*
X036113Y033355D01*
X036101Y033369D01*
X036085Y033383D01*
X036068Y033393D01*
X036052Y033402D01*
X036033Y033409D01*
X036014Y033414D01*
X035997Y033418D01*
X035981Y033422D01*
X035965Y033424D01*
X035953Y033425D01*
X035943Y033426D01*
X035935D01*
X035911Y033425D01*
X035887Y033423D01*
X035863Y033419D01*
X035838Y033416D01*
X035791Y033406D01*
X035769Y033401D01*
X035747Y033394D01*
X035727Y033388D01*
X035709Y033383D01*
X035693Y033378D01*
X035679Y033373D01*
X035668Y033369D01*
X035659Y033366D01*
X035654Y033364D01*
X035652Y033363D01*
Y033489D01*
X035681Y033498D01*
X035709Y033504D01*
X035737Y033510D01*
X035763Y033515D01*
X035788Y033519D01*
X035811Y033524D01*
X035834Y033526D01*
X035854Y033529D01*
X035873Y033530D01*
X035888Y033532D01*
X035903Y033533D01*
X035915D01*
X035925Y033534D01*
X035937D01*
X035965Y033533D01*
D02*
G37*
G36*
X037136Y032572D02*
X036468D01*
Y032680D01*
X036992D01*
Y033009D01*
X036576D01*
Y033118D01*
X036992D01*
Y033403D01*
X036501D01*
Y033511D01*
X037136D01*
Y032572D01*
D02*
G37*
G36*
X038090D02*
X037972D01*
Y033259D01*
X037970D01*
X037537Y032572D01*
X037404D01*
Y033514D01*
X037522D01*
Y032830D01*
X037523D01*
X037954Y033514D01*
X038090D01*
Y032572D01*
D02*
G37*
G36*
X033261Y033383D02*
X033291Y033379D01*
X033319Y033374D01*
X033345Y033366D01*
X033370Y033358D01*
X033392Y033349D01*
X033413Y033339D01*
X033432Y033329D01*
X033448Y033318D01*
X033463Y033308D01*
X033475Y033299D01*
X033485Y033290D01*
X033493Y033283D01*
X033499Y033278D01*
X033502Y033274D01*
X033503Y033273D01*
X033521Y033251D01*
X033537Y033228D01*
X033549Y033203D01*
X033561Y033178D01*
X033571Y033153D01*
X033579Y033128D01*
X033586Y033103D01*
X033591Y033079D01*
X033595Y033056D01*
X033598Y033035D01*
X033600Y033017D01*
X033601Y033001D01*
X033602Y032987D01*
X033603Y032977D01*
Y032971D01*
Y032970D01*
Y032969D01*
X033602Y032933D01*
X033599Y032900D01*
X033594Y032869D01*
X033588Y032840D01*
X033580Y032813D01*
X033572Y032788D01*
X033563Y032765D01*
X033553Y032744D01*
X033545Y032725D01*
X033536Y032709D01*
X033527Y032696D01*
X033520Y032685D01*
X033514Y032675D01*
X033509Y032669D01*
X033505Y032665D01*
X033504Y032664D01*
X033485Y032644D01*
X033464Y032627D01*
X033442Y032613D01*
X033419Y032600D01*
X033396Y032589D01*
X033373Y032580D01*
X033350Y032573D01*
X033328Y032567D01*
X033309Y032563D01*
X033290Y032560D01*
X033272Y032556D01*
X033258Y032555D01*
X033245Y032554D01*
X033236Y032553D01*
X033229D01*
X033196Y032554D01*
X033166Y032559D01*
X033138Y032564D01*
X033112Y032571D01*
X033087Y032579D01*
X033065Y032589D01*
X033044Y032598D01*
X033026Y032609D01*
X033009Y032619D01*
X032994Y032628D01*
X032982Y032638D01*
X032972Y032646D01*
X032964Y032653D01*
X032958Y032658D01*
X032955Y032663D01*
X032954Y032664D01*
X032936Y032686D01*
X032920Y032708D01*
X032907Y032733D01*
X032895Y032758D01*
X032886Y032783D01*
X032878Y032809D01*
X032871Y032834D01*
X032866Y032858D01*
X032862Y032880D01*
X032859Y032902D01*
X032857Y032921D01*
X032855Y032936D01*
Y032950D01*
X032854Y032960D01*
Y032967D01*
Y032968D01*
Y032969D01*
X032855Y033004D01*
X032858Y033037D01*
X032863Y033069D01*
X032869Y033098D01*
X032877Y033125D01*
X032885Y033150D01*
X032894Y033173D01*
X032904Y033193D01*
X032913Y033211D01*
X032922Y033227D01*
X032931Y033241D01*
X032938Y033252D01*
X032944Y033261D01*
X032950Y033267D01*
X032953Y033272D01*
X032954Y033273D01*
X032973Y033292D01*
X032994Y033309D01*
X033016Y033325D01*
X033039Y033337D01*
X033062Y033348D01*
X033085Y033357D01*
X033107Y033364D01*
X033129Y033371D01*
X033149Y033375D01*
X033168Y033378D01*
X033185Y033381D01*
X033199Y033382D01*
X033212Y033383D01*
X033221Y033384D01*
X033229D01*
X033261Y033383D01*
D02*
G37*
G36*
X035333Y032970D02*
X034738D01*
Y033078D01*
X035333D01*
Y032970D01*
D02*
G37*
G36*
X029662Y032133D02*
X029687Y032129D01*
X029711Y032125D01*
X029733Y032119D01*
X029755Y032112D01*
X029774Y032104D01*
X029792Y032096D01*
X029808Y032088D01*
X029823Y032079D01*
X029835Y032070D01*
X029846Y032063D01*
X029855Y032056D01*
X029862Y032049D01*
X029868Y032045D01*
X029871Y032042D01*
X029872Y032041D01*
X029888Y032023D01*
X029902Y032004D01*
X029914Y031985D01*
X029924Y031965D01*
X029933Y031945D01*
X029940Y031925D01*
X029946Y031906D01*
X029951Y031887D01*
X029955Y031870D01*
X029957Y031853D01*
X029959Y031838D01*
X029961Y031826D01*
X029961Y031816D01*
Y031812D01*
X029962Y031808D01*
Y031805D01*
Y031803D01*
Y031802D01*
Y031802D01*
X029961Y031775D01*
X029958Y031750D01*
X029954Y031726D01*
X029948Y031703D01*
X029941Y031682D01*
X029934Y031663D01*
X029925Y031645D01*
X029916Y031629D01*
X029908Y031615D01*
X029900Y031602D01*
X029892Y031591D01*
X029885Y031582D01*
X029880Y031575D01*
X029875Y031570D01*
X029872Y031568D01*
X029871Y031566D01*
X029853Y031550D01*
X029834Y031537D01*
X029815Y031525D01*
X029796Y031514D01*
X029775Y031506D01*
X029755Y031499D01*
X029736Y031493D01*
X029717Y031488D01*
X029699Y031484D01*
X029683Y031482D01*
X029669Y031480D01*
X029656Y031478D01*
X029646Y031478D01*
X029642D01*
X029637Y031477D01*
X029631D01*
X029615Y031478D01*
X029598Y031478D01*
X029567Y031482D01*
X029536Y031488D01*
X029521Y031491D01*
X029508Y031494D01*
X029495Y031497D01*
X029484Y031500D01*
X029474Y031503D01*
X029465Y031505D01*
X029458Y031508D01*
X029453Y031509D01*
X029450Y031510D01*
X029449Y031511D01*
Y031590D01*
X029465Y031584D01*
X029482Y031579D01*
X029497Y031574D01*
X029512Y031570D01*
X029526Y031566D01*
X029539Y031564D01*
X029551Y031561D01*
X029562Y031559D01*
X029572Y031558D01*
X029581Y031557D01*
X029589Y031557D01*
X029596Y031556D01*
X029601Y031555D01*
X029608D01*
X029628Y031556D01*
X029647Y031558D01*
X029666Y031561D01*
X029682Y031566D01*
X029699Y031572D01*
X029714Y031577D01*
X029728Y031584D01*
X029740Y031591D01*
X029751Y031598D01*
X029761Y031604D01*
X029769Y031609D01*
X029777Y031615D01*
X029782Y031620D01*
X029786Y031623D01*
X029789Y031625D01*
X029789Y031626D01*
X029802Y031640D01*
X029812Y031654D01*
X029822Y031669D01*
X029830Y031684D01*
X029837Y031700D01*
X029842Y031715D01*
X029847Y031729D01*
X029850Y031743D01*
X029854Y031756D01*
X029856Y031769D01*
X029857Y031780D01*
X029858Y031789D01*
X029859Y031797D01*
X029859Y031803D01*
Y031806D01*
Y031808D01*
X029859Y031828D01*
X029857Y031847D01*
X029854Y031865D01*
X029850Y031883D01*
X029845Y031899D01*
X029839Y031914D01*
X029834Y031928D01*
X029828Y031940D01*
X029823Y031952D01*
X029816Y031961D01*
X029812Y031970D01*
X029807Y031976D01*
X029803Y031982D01*
X029800Y031986D01*
X029798Y031989D01*
X029797Y031990D01*
X029785Y032002D01*
X029772Y032013D01*
X029759Y032023D01*
X029746Y032031D01*
X029732Y032038D01*
X029719Y032044D01*
X029706Y032049D01*
X029694Y032052D01*
X029682Y032055D01*
X029671Y032058D01*
X029662Y032059D01*
X029653Y032060D01*
X029646Y032060D01*
X029642Y032061D01*
X029637D01*
X029621Y032060D01*
X029605Y032059D01*
X029589Y032057D01*
X029574Y032054D01*
X029544Y032047D01*
X029529Y032043D01*
X029516Y032039D01*
X029503Y032035D01*
X029492Y032031D01*
X029482Y032027D01*
X029474Y032024D01*
X029467Y032021D01*
X029461Y032019D01*
X029458Y032017D01*
X029457Y032017D01*
Y032105D01*
X029492Y032115D01*
X029508Y032118D01*
X029525Y032122D01*
X029540Y032124D01*
X029555Y032126D01*
X029569Y032128D01*
X029581Y032130D01*
X029593Y032131D01*
X029603Y032132D01*
X029612Y032133D01*
X029620D01*
X029626Y032133D01*
X029635D01*
X029662Y032133D01*
D02*
G37*
G36*
X031521Y032033D02*
X031540Y032030D01*
X031558Y032026D01*
X031575Y032021D01*
X031591Y032015D01*
X031606Y032008D01*
X031619Y032001D01*
X031631Y031994D01*
X031642Y031986D01*
X031652Y031979D01*
X031661Y031972D01*
X031668Y031966D01*
X031674Y031961D01*
X031677Y031957D01*
X031680Y031954D01*
X031680Y031954D01*
X031693Y031938D01*
X031703Y031922D01*
X031713Y031905D01*
X031721Y031888D01*
X031728Y031871D01*
X031733Y031854D01*
X031738Y031838D01*
X031742Y031822D01*
X031745Y031807D01*
X031747Y031793D01*
X031748Y031781D01*
X031749Y031771D01*
X031750Y031762D01*
X031751Y031756D01*
Y031752D01*
Y031751D01*
Y031750D01*
X031750Y031727D01*
X031747Y031704D01*
X031744Y031684D01*
X031739Y031664D01*
X031734Y031646D01*
X031728Y031629D01*
X031721Y031614D01*
X031714Y031601D01*
X031708Y031589D01*
X031701Y031579D01*
X031694Y031570D01*
X031689Y031563D01*
X031685Y031557D01*
X031680Y031553D01*
X031678Y031550D01*
X031678Y031550D01*
X031663Y031537D01*
X031648Y031527D01*
X031631Y031517D01*
X031614Y031509D01*
X031597Y031502D01*
X031579Y031497D01*
X031562Y031492D01*
X031545Y031489D01*
X031529Y031485D01*
X031515Y031483D01*
X031501Y031482D01*
X031490Y031481D01*
X031481Y031480D01*
X031474Y031480D01*
X031467D01*
X031451Y031480D01*
X031436Y031481D01*
X031404Y031484D01*
X031372Y031490D01*
X031358Y031493D01*
X031344Y031496D01*
X031331Y031499D01*
X031320Y031502D01*
X031309Y031505D01*
X031300Y031507D01*
X031293Y031509D01*
X031288Y031511D01*
X031285Y031512D01*
X031284D01*
Y031589D01*
X031301Y031582D01*
X031318Y031577D01*
X031333Y031571D01*
X031349Y031567D01*
X031364Y031564D01*
X031379Y031561D01*
X031392Y031558D01*
X031404Y031557D01*
X031415Y031555D01*
X031424Y031554D01*
X031433Y031553D01*
X031440Y031552D01*
X031447Y031552D01*
X031454D01*
X031471Y031552D01*
X031487Y031554D01*
X031501Y031556D01*
X031515Y031559D01*
X031528Y031564D01*
X031540Y031568D01*
X031551Y031574D01*
X031562Y031580D01*
X031572Y031586D01*
X031581Y031593D01*
X031588Y031601D01*
X031596Y031609D01*
X031609Y031625D01*
X031619Y031642D01*
X031628Y031659D01*
X031635Y031675D01*
X031640Y031690D01*
X031643Y031704D01*
X031646Y031715D01*
X031646Y031720D01*
X031647Y031724D01*
Y031727D01*
X031648Y031729D01*
Y031731D01*
Y031732D01*
X031287D01*
Y031762D01*
X031288Y031787D01*
X031289Y031811D01*
X031292Y031833D01*
X031295Y031853D01*
X031299Y031871D01*
X031304Y031888D01*
X031308Y031903D01*
X031313Y031917D01*
X031318Y031929D01*
X031322Y031938D01*
X031327Y031947D01*
X031331Y031954D01*
X031334Y031960D01*
X031337Y031964D01*
X031338Y031966D01*
X031339Y031967D01*
X031349Y031979D01*
X031361Y031989D01*
X031373Y031998D01*
X031386Y032006D01*
X031399Y032012D01*
X031413Y032017D01*
X031426Y032022D01*
X031440Y032025D01*
X031451Y032028D01*
X031463Y032030D01*
X031474Y032031D01*
X031483Y032033D01*
X031490D01*
X031496Y032033D01*
X031501D01*
X031521Y032033D01*
D02*
G37*
G36*
X032332Y031492D02*
X032236D01*
Y031752D01*
X032149D01*
X031952Y031492D01*
X031835D01*
X032051Y031777D01*
X032038Y031784D01*
X032025Y031791D01*
X032014Y031798D01*
X032004Y031805D01*
X031994Y031812D01*
X031986Y031819D01*
X031978Y031825D01*
X031971Y031831D01*
X031965Y031837D01*
X031960Y031842D01*
X031956Y031847D01*
X031953Y031850D01*
X031950Y031854D01*
X031948Y031856D01*
X031946Y031857D01*
Y031858D01*
X031941Y031866D01*
X031936Y031875D01*
X031928Y031893D01*
X031922Y031911D01*
X031919Y031929D01*
X031917Y031937D01*
X031916Y031944D01*
X031915Y031950D01*
Y031956D01*
X031914Y031961D01*
Y031964D01*
Y031966D01*
Y031967D01*
X031915Y031984D01*
X031919Y032000D01*
X031923Y032015D01*
X031928Y032028D01*
X031935Y032040D01*
X031943Y032051D01*
X031951Y032060D01*
X031959Y032069D01*
X031969Y032076D01*
X031977Y032083D01*
X031984Y032088D01*
X031991Y032092D01*
X031997Y032095D01*
X032001Y032097D01*
X032004Y032099D01*
X032005Y032099D01*
X032014Y032103D01*
X032024Y032106D01*
X032035Y032108D01*
X032047Y032110D01*
X032072Y032113D01*
X032097Y032116D01*
X032109Y032117D01*
X032120Y032117D01*
X032130D01*
X032139Y032118D01*
X032332D01*
Y031492D01*
D02*
G37*
G36*
X031717Y032572D02*
X031572D01*
Y032987D01*
X031199Y032572D01*
X031003D01*
X031397Y033009D01*
X031082Y033367D01*
X031239D01*
X031572Y032987D01*
Y033728D01*
X031717D01*
Y032572D01*
D02*
G37*
G36*
X034476D02*
X034331D01*
Y032993D01*
X033934D01*
Y032572D01*
X033790D01*
Y033511D01*
X033934D01*
Y033101D01*
X034331D01*
Y033511D01*
X034476D01*
Y032572D01*
D02*
G37*
G36*
X030967Y031492D02*
X030871D01*
X030645Y032022D01*
X030730D01*
X030912Y031597D01*
X031089Y032022D01*
X031186D01*
X030967Y031492D01*
D02*
G37*
%LPC*%
G36*
X033431Y022908D02*
X033428D01*
X033422Y022908D01*
X033417Y022907D01*
X033412Y022906D01*
X033408Y022905D01*
X033400Y022901D01*
X033393Y022896D01*
X033390Y022894D01*
X033388Y022892D01*
X033385Y022890D01*
X033383Y022888D01*
X033382Y022886D01*
X033381Y022885D01*
X033381Y022885D01*
X033380Y022884D01*
X033377Y022879D01*
X033374Y022874D01*
X033372Y022869D01*
X033369Y022864D01*
X033366Y022853D01*
X033364Y022843D01*
X033363Y022838D01*
X033363Y022834D01*
X033363Y022830D01*
X033362Y022827D01*
X033362Y022824D01*
Y022822D01*
Y022821D01*
Y022820D01*
X033362Y022814D01*
X033363Y022808D01*
X033363Y022802D01*
X033365Y022796D01*
X033366Y022791D01*
X033367Y022786D01*
X033369Y022781D01*
X033370Y022778D01*
X033372Y022774D01*
X033373Y022771D01*
X033375Y022768D01*
X033376Y022766D01*
X033377Y022764D01*
X033378Y022763D01*
X033378Y022762D01*
X033379Y022762D01*
X033382Y022758D01*
X033385Y022754D01*
X033389Y022751D01*
X033393Y022749D01*
X033397Y022746D01*
X033400Y022745D01*
X033407Y022742D01*
X033413Y022740D01*
X033416Y022740D01*
X033418Y022740D01*
X033420Y022739D01*
X033423D01*
X033428Y022740D01*
X033434Y022740D01*
X033439Y022742D01*
X033444Y022743D01*
X033449Y022745D01*
X033453Y022747D01*
X033457Y022749D01*
X033460Y022752D01*
X033463Y022754D01*
X033466Y022756D01*
X033468Y022758D01*
X033470Y022760D01*
X033472Y022761D01*
X033473Y022763D01*
X033474Y022763D01*
X033474Y022764D01*
X033477Y022769D01*
X033480Y022774D01*
X033483Y022779D01*
X033485Y022785D01*
X033488Y022796D01*
X033491Y022806D01*
X033491Y022811D01*
X033492Y022816D01*
X033492Y022820D01*
X033493Y022823D01*
X033493Y022826D01*
Y022829D01*
Y022830D01*
Y022830D01*
X033493Y022837D01*
X033492Y022843D01*
X033491Y022849D01*
X033490Y022854D01*
X033489Y022859D01*
X033487Y022864D01*
X033486Y022868D01*
X033484Y022872D01*
X033483Y022876D01*
X033481Y022878D01*
X033479Y022881D01*
X033478Y022883D01*
X033477Y022885D01*
X033476Y022886D01*
X033476Y022887D01*
X033475Y022887D01*
X033472Y022891D01*
X033468Y022894D01*
X033464Y022897D01*
X033460Y022899D01*
X033457Y022902D01*
X033452Y022903D01*
X033445Y022906D01*
X033438Y022907D01*
X033435Y022908D01*
X033433Y022908D01*
X033431Y022908D01*
D02*
G37*
G36*
X037628Y022842D02*
X037609D01*
Y022775D01*
X037616Y022770D01*
X037623Y022766D01*
X037629Y022762D01*
X037635Y022758D01*
X037641Y022755D01*
X037647Y022753D01*
X037652Y022751D01*
X037657Y022750D01*
X037661Y022749D01*
X037665Y022747D01*
X037668Y022747D01*
X037671Y022746D01*
X037674D01*
X037675Y022746D01*
X037677D01*
X037684Y022746D01*
X037691Y022748D01*
X037697Y022750D01*
X037701Y022752D01*
X037705Y022754D01*
X037708Y022756D01*
X037710Y022757D01*
X037710Y022758D01*
X037715Y022762D01*
X037718Y022767D01*
X037720Y022772D01*
X037721Y022778D01*
X037722Y022782D01*
X037723Y022786D01*
X037723Y022787D01*
Y022788D01*
Y022788D01*
Y022789D01*
X037723Y022794D01*
X037722Y022798D01*
X037720Y022802D01*
X037719Y022806D01*
X037716Y022810D01*
X037714Y022813D01*
X037711Y022817D01*
X037707Y022820D01*
X037700Y022825D01*
X037692Y022829D01*
X037683Y022833D01*
X037673Y022836D01*
X037664Y022838D01*
X037655Y022839D01*
X037647Y022840D01*
X037639Y022842D01*
X037636D01*
X037633Y022842D01*
X037631D01*
X037628Y022842D01*
D02*
G37*
G36*
X038231D02*
X038212D01*
Y022775D01*
X038218Y022770D01*
X038225Y022766D01*
X038231Y022762D01*
X038238Y022758D01*
X038243Y022755D01*
X038249Y022753D01*
X038254Y022751D01*
X038259Y022750D01*
X038263Y022749D01*
X038267Y022747D01*
X038271Y022747D01*
X038274Y022746D01*
X038276D01*
X038278Y022746D01*
X038279D01*
X038286Y022746D01*
X038293Y022748D01*
X038299Y022750D01*
X038304Y022752D01*
X038308Y022754D01*
X038310Y022756D01*
X038312Y022757D01*
X038313Y022758D01*
X038317Y022762D01*
X038320Y022767D01*
X038322Y022772D01*
X038324Y022778D01*
X038325Y022782D01*
X038325Y022786D01*
X038325Y022787D01*
Y022788D01*
Y022788D01*
Y022789D01*
X038325Y022794D01*
X038324Y022798D01*
X038323Y022802D01*
X038321Y022806D01*
X038319Y022810D01*
X038316Y022813D01*
X038313Y022817D01*
X038310Y022820D01*
X038302Y022825D01*
X038294Y022829D01*
X038285Y022833D01*
X038276Y022836D01*
X038267Y022838D01*
X038258Y022839D01*
X038249Y022840D01*
X038242Y022842D01*
X038239D01*
X038235Y022842D01*
X038233D01*
X038231Y022842D01*
D02*
G37*
G36*
X036436Y022942D02*
X036434D01*
X036429Y022941D01*
X036424Y022941D01*
X036420Y022939D01*
X036416Y022938D01*
X036412Y022936D01*
X036408Y022933D01*
X036402Y022927D01*
X036396Y022920D01*
X036392Y022912D01*
X036388Y022904D01*
X036385Y022895D01*
X036383Y022886D01*
X036381Y022878D01*
X036380Y022870D01*
X036379Y022862D01*
X036379Y022856D01*
Y022854D01*
X036378Y022852D01*
Y022850D01*
Y022849D01*
Y022848D01*
Y022848D01*
X036379Y022839D01*
X036379Y022830D01*
X036380Y022822D01*
X036381Y022814D01*
X036382Y022808D01*
X036384Y022801D01*
X036386Y022795D01*
X036387Y022790D01*
X036389Y022785D01*
X036390Y022781D01*
X036392Y022778D01*
X036393Y022775D01*
X036394Y022772D01*
X036395Y022771D01*
X036396Y022770D01*
X036396Y022770D01*
X036399Y022765D01*
X036403Y022761D01*
X036407Y022757D01*
X036411Y022754D01*
X036415Y022751D01*
X036419Y022749D01*
X036423Y022747D01*
X036427Y022745D01*
X036434Y022743D01*
X036437Y022743D01*
X036440Y022742D01*
X036442D01*
X036444Y022742D01*
X036445D01*
X036451Y022742D01*
X036457Y022744D01*
X036463Y022745D01*
X036469Y022747D01*
X036474Y022750D01*
X036480Y022753D01*
X036485Y022757D01*
X036490Y022760D01*
X036494Y022763D01*
X036498Y022767D01*
X036502Y022770D01*
X036505Y022772D01*
X036507Y022775D01*
X036509Y022777D01*
X036510Y022778D01*
X036511Y022778D01*
Y022891D01*
X036504Y022900D01*
X036497Y022908D01*
X036490Y022914D01*
X036483Y022920D01*
X036477Y022925D01*
X036471Y022929D01*
X036465Y022933D01*
X036459Y022936D01*
X036454Y022938D01*
X036449Y022939D01*
X036445Y022940D01*
X036441Y022941D01*
X036438Y022941D01*
X036436Y022942D01*
D02*
G37*
G36*
X034043Y023046D02*
X034041D01*
X034034Y023046D01*
X034028Y023045D01*
X034023Y023042D01*
X034017Y023040D01*
X034012Y023036D01*
X034008Y023032D01*
X034003Y023028D01*
X033999Y023022D01*
X033995Y023017D01*
X033992Y023011D01*
X033986Y022998D01*
X033982Y022984D01*
X033978Y022970D01*
X033975Y022955D01*
X033973Y022941D01*
X033971Y022929D01*
X033970Y022922D01*
X033970Y022917D01*
X033969Y022912D01*
X033969Y022907D01*
Y022903D01*
X033969Y022899D01*
Y022897D01*
Y022895D01*
Y022893D01*
Y022893D01*
X033969Y022879D01*
X033969Y022866D01*
X033970Y022854D01*
X033972Y022842D01*
X033974Y022831D01*
X033975Y022822D01*
X033977Y022812D01*
X033980Y022804D01*
X033983Y022796D01*
X033985Y022789D01*
X033989Y022783D01*
X033992Y022777D01*
X033995Y022771D01*
X033998Y022767D01*
X034001Y022762D01*
X034005Y022758D01*
X034008Y022755D01*
X034011Y022752D01*
X034015Y022750D01*
X034018Y022747D01*
X034024Y022744D01*
X034029Y022742D01*
X034034Y022740D01*
X034038Y022740D01*
X034039Y022739D01*
X034041D01*
X034048Y022740D01*
X034054Y022741D01*
X034059Y022743D01*
X034065Y022746D01*
X034070Y022749D01*
X034074Y022753D01*
X034079Y022758D01*
X034083Y022763D01*
X034086Y022769D01*
X034089Y022775D01*
X034095Y022788D01*
X034100Y022802D01*
X034104Y022816D01*
X034107Y022830D01*
X034109Y022844D01*
X034111Y022857D01*
X034111Y022863D01*
X034112Y022869D01*
X034112Y022874D01*
X034113Y022879D01*
Y022883D01*
X034113Y022886D01*
Y022889D01*
Y022891D01*
Y022893D01*
Y022893D01*
X034113Y022907D01*
X034112Y022920D01*
X034111Y022932D01*
X034110Y022944D01*
X034108Y022954D01*
X034106Y022964D01*
X034104Y022973D01*
X034102Y022982D01*
X034099Y022989D01*
X034096Y022996D01*
X034093Y023003D01*
X034090Y023009D01*
X034087Y023014D01*
X034084Y023019D01*
X034080Y023023D01*
X034077Y023027D01*
X034074Y023031D01*
X034070Y023033D01*
X034067Y023036D01*
X034064Y023038D01*
X034058Y023042D01*
X034052Y023044D01*
X034048Y023045D01*
X034044Y023046D01*
X034043Y023046D01*
D02*
G37*
G36*
X039466Y022947D02*
X039465D01*
X039459Y022946D01*
X039452Y022945D01*
X039446Y022943D01*
X039441Y022941D01*
X039435Y022938D01*
X039429Y022935D01*
X039424Y022932D01*
X039419Y022929D01*
X039415Y022925D01*
X039411Y022922D01*
X039407Y022919D01*
X039404Y022916D01*
X039402Y022914D01*
X039400Y022912D01*
X039399Y022911D01*
X039399Y022911D01*
Y022798D01*
X039406Y022789D01*
X039412Y022781D01*
X039419Y022774D01*
X039426Y022768D01*
X039432Y022763D01*
X039439Y022759D01*
X039445Y022756D01*
X039450Y022753D01*
X039456Y022751D01*
X039460Y022750D01*
X039465Y022749D01*
X039468Y022747D01*
X039471Y022747D01*
X039474Y022747D01*
X039475D01*
X039480Y022747D01*
X039485Y022748D01*
X039490Y022749D01*
X039494Y022751D01*
X039497Y022753D01*
X039501Y022755D01*
X039507Y022761D01*
X039513Y022768D01*
X039517Y022776D01*
X039521Y022785D01*
X039524Y022794D01*
X039526Y022802D01*
X039528Y022811D01*
X039529Y022819D01*
X039530Y022826D01*
X039530Y022831D01*
Y022834D01*
X039531Y022836D01*
Y022838D01*
Y022839D01*
Y022840D01*
Y022840D01*
X039530Y022849D01*
X039530Y022858D01*
X039529Y022866D01*
X039528Y022874D01*
X039527Y022881D01*
X039525Y022887D01*
X039524Y022893D01*
X039522Y022898D01*
X039520Y022903D01*
X039519Y022907D01*
X039518Y022911D01*
X039516Y022913D01*
X039515Y022916D01*
X039514Y022917D01*
X039514Y022918D01*
X039513Y022919D01*
X039510Y022923D01*
X039507Y022928D01*
X039502Y022932D01*
X039499Y022935D01*
X039494Y022938D01*
X039490Y022940D01*
X039486Y022942D01*
X039483Y022943D01*
X039475Y022945D01*
X039472Y022946D01*
X039470Y022946D01*
X039468D01*
X039466Y022947D01*
D02*
G37*
G36*
X038543Y022942D02*
X038541D01*
X038536Y022941D01*
X038531Y022941D01*
X038527Y022939D01*
X038523Y022938D01*
X038519Y022936D01*
X038515Y022933D01*
X038509Y022927D01*
X038503Y022920D01*
X038499Y022912D01*
X038495Y022904D01*
X038492Y022895D01*
X038490Y022886D01*
X038488Y022878D01*
X038487Y022870D01*
X038486Y022862D01*
X038486Y022856D01*
Y022854D01*
X038485Y022852D01*
Y022850D01*
Y022849D01*
Y022848D01*
Y022848D01*
X038486Y022839D01*
X038486Y022830D01*
X038487Y022822D01*
X038488Y022814D01*
X038489Y022808D01*
X038491Y022801D01*
X038493Y022795D01*
X038494Y022790D01*
X038496Y022785D01*
X038497Y022781D01*
X038499Y022778D01*
X038500Y022775D01*
X038501Y022772D01*
X038502Y022771D01*
X038503Y022770D01*
X038503Y022770D01*
X038506Y022765D01*
X038510Y022761D01*
X038514Y022757D01*
X038518Y022754D01*
X038522Y022751D01*
X038526Y022749D01*
X038530Y022747D01*
X038534Y022745D01*
X038541Y022743D01*
X038544Y022743D01*
X038547Y022742D01*
X038549D01*
X038551Y022742D01*
X038552D01*
X038558Y022742D01*
X038564Y022744D01*
X038570Y022745D01*
X038576Y022747D01*
X038581Y022750D01*
X038587Y022753D01*
X038592Y022757D01*
X038597Y022760D01*
X038601Y022763D01*
X038605Y022767D01*
X038609Y022770D01*
X038612Y022772D01*
X038614Y022775D01*
X038616Y022777D01*
X038617Y022778D01*
X038617Y022778D01*
Y022891D01*
X038611Y022900D01*
X038604Y022908D01*
X038597Y022914D01*
X038590Y022920D01*
X038584Y022925D01*
X038578Y022929D01*
X038572Y022933D01*
X038566Y022936D01*
X038561Y022938D01*
X038556Y022939D01*
X038552Y022940D01*
X038548Y022941D01*
X038545Y022941D01*
X038543Y022942D01*
D02*
G37*
G36*
X039160Y022947D02*
X039157D01*
X039151Y022946D01*
X039146Y022946D01*
X039141Y022945D01*
X039137Y022944D01*
X039129Y022940D01*
X039122Y022936D01*
X039116Y022930D01*
X039112Y022924D01*
X039108Y022917D01*
X039104Y022911D01*
X039102Y022904D01*
X039100Y022897D01*
X039099Y022891D01*
X039098Y022886D01*
X039097Y022881D01*
X039097Y022878D01*
Y022876D01*
Y022875D01*
Y022875D01*
Y022874D01*
Y022868D01*
X039225D01*
X039224Y022875D01*
X039223Y022881D01*
X039222Y022887D01*
X039220Y022893D01*
X039218Y022898D01*
X039216Y022903D01*
X039215Y022907D01*
X039213Y022911D01*
X039211Y022914D01*
X039209Y022917D01*
X039208Y022920D01*
X039206Y022922D01*
X039205Y022924D01*
X039204Y022925D01*
X039204Y022925D01*
X039204Y022926D01*
X039200Y022930D01*
X039196Y022933D01*
X039192Y022936D01*
X039189Y022938D01*
X039185Y022940D01*
X039181Y022941D01*
X039173Y022944D01*
X039167Y022946D01*
X039164Y022946D01*
X039162Y022946D01*
X039160Y022947D01*
D02*
G37*
G36*
X032335Y033276D02*
X032325D01*
X032306Y033275D01*
X032289Y033273D01*
X032272Y033269D01*
X032256Y033263D01*
X032242Y033257D01*
X032228Y033250D01*
X032217Y033242D01*
X032205Y033235D01*
X032196Y033227D01*
X032188Y033220D01*
X032180Y033212D01*
X032174Y033206D01*
X032170Y033201D01*
X032167Y033197D01*
X032165Y033195D01*
X032164Y033194D01*
X032153Y033178D01*
X032144Y033160D01*
X032137Y033143D01*
X032129Y033124D01*
X032123Y033105D01*
X032119Y033086D01*
X032112Y033051D01*
X032109Y033034D01*
X032107Y033019D01*
X032106Y033004D01*
X032105Y032993D01*
X032104Y032982D01*
Y032975D01*
Y032971D01*
Y032969D01*
X032105Y032943D01*
X032106Y032918D01*
X032109Y032894D01*
X032114Y032872D01*
X032118Y032852D01*
X032123Y032833D01*
X032128Y032817D01*
X032133Y032801D01*
X032140Y032788D01*
X032145Y032776D01*
X032150Y032766D01*
X032154Y032757D01*
X032158Y032751D01*
X032162Y032747D01*
X032163Y032744D01*
X032164Y032743D01*
X032175Y032728D01*
X032188Y032716D01*
X032200Y032705D01*
X032214Y032696D01*
X032227Y032688D01*
X032241Y032681D01*
X032253Y032676D01*
X032266Y032672D01*
X032278Y032669D01*
X032290Y032666D01*
X032299Y032664D01*
X032308Y032663D01*
X032315D01*
X032321Y032662D01*
X032325D01*
X032344Y032663D01*
X032361Y032665D01*
X032378Y032669D01*
X032395Y032674D01*
X032408Y032680D01*
X032422Y032688D01*
X032434Y032695D01*
X032445Y032702D01*
X032455Y032709D01*
X032463Y032717D01*
X032471Y032724D01*
X032477Y032730D01*
X032481Y032736D01*
X032484Y032740D01*
X032486Y032742D01*
X032487Y032743D01*
X032498Y032758D01*
X032506Y032776D01*
X032514Y032794D01*
X032521Y032813D01*
X032531Y032850D01*
X032538Y032886D01*
X032540Y032903D01*
X032543Y032919D01*
X032544Y032932D01*
X032545Y032945D01*
X032546Y032955D01*
Y032962D01*
Y032967D01*
Y032969D01*
X032545Y032995D01*
X032544Y033020D01*
X032540Y033043D01*
X032536Y033064D01*
X032532Y033084D01*
X032527Y033103D01*
X032522Y033120D01*
X032517Y033135D01*
X032511Y033149D01*
X032506Y033160D01*
X032501Y033171D01*
X032497Y033179D01*
X032493Y033185D01*
X032489Y033189D01*
X032488Y033193D01*
X032487Y033194D01*
X032476Y033208D01*
X032463Y033221D01*
X032451Y033232D01*
X032437Y033241D01*
X032424Y033249D01*
X032410Y033256D01*
X032397Y033261D01*
X032384Y033265D01*
X032372Y033269D01*
X032361Y033272D01*
X032351Y033274D01*
X032342Y033275D01*
X032335Y033276D01*
D02*
G37*
G36*
X033239D02*
X033229D01*
X033210Y033275D01*
X033192Y033273D01*
X033175Y033269D01*
X033160Y033263D01*
X033145Y033257D01*
X033132Y033250D01*
X033120Y033242D01*
X033109Y033235D01*
X033099Y033227D01*
X033091Y033220D01*
X033084Y033212D01*
X033078Y033206D01*
X033073Y033201D01*
X033070Y033197D01*
X033068Y033195D01*
X033067Y033194D01*
X033057Y033178D01*
X033047Y033160D01*
X033040Y033143D01*
X033033Y033124D01*
X033027Y033105D01*
X033022Y033086D01*
X033015Y033051D01*
X033013Y033034D01*
X033011Y033019D01*
X033010Y033004D01*
X033009Y032993D01*
X033008Y032982D01*
Y032975D01*
Y032971D01*
Y032969D01*
X033009Y032943D01*
X033010Y032918D01*
X033013Y032894D01*
X033017Y032872D01*
X033021Y032852D01*
X033027Y032833D01*
X033032Y032817D01*
X033037Y032801D01*
X033043Y032788D01*
X033048Y032776D01*
X033054Y032766D01*
X033058Y032757D01*
X033062Y032751D01*
X033065Y032747D01*
X033066Y032744D01*
X033067Y032743D01*
X033079Y032728D01*
X033091Y032716D01*
X033104Y032705D01*
X033117Y032696D01*
X033131Y032688D01*
X033144Y032681D01*
X033157Y032676D01*
X033169Y032672D01*
X033182Y032669D01*
X033193Y032666D01*
X033203Y032664D01*
X033212Y032663D01*
X033218D01*
X033224Y032662D01*
X033229D01*
X033247Y032663D01*
X033265Y032665D01*
X033282Y032669D01*
X033298Y032674D01*
X033312Y032680D01*
X033325Y032688D01*
X033338Y032695D01*
X033348Y032702D01*
X033359Y032709D01*
X033367Y032717D01*
X033374Y032724D01*
X033381Y032730D01*
X033385Y032736D01*
X033388Y032740D01*
X033390Y032742D01*
X033391Y032743D01*
X033401Y032758D01*
X033410Y032776D01*
X033418Y032794D01*
X033424Y032813D01*
X033435Y032850D01*
X033442Y032886D01*
X033444Y032903D01*
X033446Y032919D01*
X033447Y032932D01*
X033448Y032945D01*
X033449Y032955D01*
Y032962D01*
Y032967D01*
Y032969D01*
X033448Y032995D01*
X033447Y033020D01*
X033444Y033043D01*
X033440Y033064D01*
X033436Y033084D01*
X033431Y033103D01*
X033425Y033120D01*
X033420Y033135D01*
X033415Y033149D01*
X033410Y033160D01*
X033404Y033171D01*
X033400Y033179D01*
X033396Y033185D01*
X033393Y033189D01*
X033392Y033193D01*
X033391Y033194D01*
X033379Y033208D01*
X033367Y033221D01*
X033355Y033232D01*
X033341Y033241D01*
X033327Y033249D01*
X033314Y033256D01*
X033300Y033261D01*
X033288Y033265D01*
X033275Y033269D01*
X033265Y033272D01*
X033255Y033274D01*
X033245Y033275D01*
X033239Y033276D01*
D02*
G37*
G36*
X031515Y031961D02*
X031509D01*
X031498Y031961D01*
X031488Y031960D01*
X031479Y031958D01*
X031470Y031955D01*
X031454Y031948D01*
X031440Y031939D01*
X031429Y031928D01*
X031419Y031915D01*
X031411Y031902D01*
X031404Y031889D01*
X031399Y031876D01*
X031396Y031863D01*
X031393Y031850D01*
X031392Y031840D01*
X031390Y031830D01*
X031390Y031823D01*
Y031820D01*
Y031818D01*
Y031818D01*
Y031817D01*
Y031804D01*
X031645D01*
X031644Y031818D01*
X031641Y031830D01*
X031639Y031842D01*
X031635Y031853D01*
X031632Y031863D01*
X031628Y031873D01*
X031625Y031881D01*
X031621Y031890D01*
X031618Y031897D01*
X031615Y031902D01*
X031611Y031908D01*
X031608Y031912D01*
X031606Y031915D01*
X031604Y031918D01*
X031603Y031919D01*
X031603Y031920D01*
X031596Y031927D01*
X031588Y031933D01*
X031581Y031939D01*
X031573Y031944D01*
X031565Y031948D01*
X031557Y031951D01*
X031542Y031956D01*
X031529Y031959D01*
X031524Y031960D01*
X031519Y031961D01*
X031515Y031961D01*
D02*
G37*
G36*
X032236Y032046D02*
X032161D01*
X032145Y032045D01*
X032132Y032044D01*
X032119Y032043D01*
X032107Y032041D01*
X032098Y032040D01*
X032089Y032038D01*
X032080Y032036D01*
X032073Y032034D01*
X032067Y032032D01*
X032062Y032031D01*
X032059Y032029D01*
X032055Y032028D01*
X032053Y032026D01*
X032052Y032026D01*
X032052D01*
X032046Y032022D01*
X032040Y032017D01*
X032036Y032011D01*
X032032Y032006D01*
X032025Y031993D01*
X032021Y031981D01*
X032019Y031970D01*
X032018Y031964D01*
Y031960D01*
X032017Y031956D01*
Y031953D01*
Y031952D01*
Y031951D01*
X032018Y031940D01*
X032019Y031930D01*
X032021Y031921D01*
X032024Y031912D01*
X032032Y031896D01*
X032040Y031883D01*
X032044Y031877D01*
X032048Y031872D01*
X032052Y031868D01*
X032056Y031865D01*
X032059Y031862D01*
X032061Y031860D01*
X032062Y031859D01*
X032063Y031859D01*
X032072Y031852D01*
X032081Y031847D01*
X032091Y031843D01*
X032101Y031839D01*
X032122Y031833D01*
X032141Y031829D01*
X032150Y031827D01*
X032159Y031827D01*
X032166Y031826D01*
X032173Y031825D01*
X032178Y031825D01*
X032236D01*
Y032046D01*
D02*
G37*
%LPD*%
M02*
