G04 Layer_Color=128*
%FSAX24Y24*%
%MOIN*%
G70*
G01*
G75*
%ADD36C,0.0020*%
D36*
X022466Y024598D02*
X022938D01*
X022702Y024362D02*
Y024835D01*
X030637Y023476D02*
X031109D01*
X030873Y023240D02*
Y023713D01*
X032818Y023476D02*
X033291D01*
X033054Y023240D02*
Y023713D01*
X031728Y023476D02*
X032200D01*
X031964Y023240D02*
Y023713D01*
X033909Y023476D02*
X034381D01*
X034145Y023240D02*
Y023713D01*
X034999Y023476D02*
X035472D01*
X035235Y023240D02*
Y023713D01*
X029546Y023476D02*
X030019D01*
X029783Y023240D02*
Y023713D01*
X023003Y023476D02*
X023476D01*
X023239Y023240D02*
Y023713D01*
X028456Y023476D02*
X028928D01*
X028692Y023240D02*
Y023713D01*
X027365Y023476D02*
X027838D01*
X027602Y023240D02*
Y023713D01*
X025184Y023476D02*
X025657D01*
X025420Y023240D02*
Y023713D01*
X026275Y023476D02*
X026747D01*
X026511Y023240D02*
Y023713D01*
X024094Y023476D02*
X024566D01*
X024330Y023240D02*
Y023713D01*
X024639Y024595D02*
X025111D01*
X024875Y024358D02*
Y024831D01*
X026820Y024595D02*
X027292D01*
X027056Y024358D02*
Y024831D01*
X025729Y024595D02*
X026202D01*
X025966Y024358D02*
Y024831D01*
X027911Y024595D02*
X028383D01*
X028147Y024358D02*
Y024831D01*
X029001Y024595D02*
X029474D01*
X029237Y024358D02*
Y024831D01*
X023548Y024595D02*
X024021D01*
X023785Y024358D02*
Y024831D01*
X030092Y024595D02*
X030564D01*
X030328Y024358D02*
Y024831D01*
X019296Y024035D02*
X020674D01*
X019985Y023346D02*
Y024724D01*
X037816Y024035D02*
X039194D01*
X038505Y023346D02*
Y024724D01*
X035544Y024595D02*
X036017D01*
X035781Y024358D02*
Y024831D01*
X034454Y024595D02*
X034926D01*
X034690Y024358D02*
Y024831D01*
X032273Y024595D02*
X032745D01*
X032509Y024358D02*
Y024831D01*
X033363Y024595D02*
X033836D01*
X033600Y024358D02*
Y024831D01*
X031182Y024595D02*
X031655D01*
X031418Y024358D02*
Y024831D01*
X020611Y032748D02*
X020951D01*
X020781Y032578D02*
Y032918D01*
X021611Y032748D02*
X021951D01*
X021781Y032578D02*
Y032918D01*
X022611Y032748D02*
X022951D01*
X022781Y032578D02*
Y032918D01*
X023611Y032748D02*
X023951D01*
X023781Y032578D02*
Y032918D01*
X019611Y031748D02*
X019951D01*
X019781Y031578D02*
Y031918D01*
X020611Y031748D02*
X020951D01*
X020781Y031578D02*
Y031918D01*
X021611Y031748D02*
X021951D01*
X021781Y031578D02*
Y031918D01*
X022611Y031748D02*
X022951D01*
X022781Y031578D02*
Y031918D01*
X023611Y031748D02*
X023951D01*
X023781Y031578D02*
Y031918D01*
X024611Y031748D02*
X024951D01*
X024781Y031578D02*
Y031918D01*
X019611Y030748D02*
X019951D01*
X019781Y030578D02*
Y030918D01*
X020611Y030748D02*
X020951D01*
X020781Y030578D02*
Y030918D01*
X023611Y030748D02*
X023951D01*
X023781Y030578D02*
Y030918D01*
X024611Y030748D02*
X024951D01*
X024781Y030578D02*
Y030918D01*
X019611Y029748D02*
X019951D01*
X019781Y029578D02*
Y029918D01*
X020611Y029748D02*
X020951D01*
X020781Y029578D02*
Y029918D01*
X023611Y029748D02*
X023951D01*
X023781Y029578D02*
Y029918D01*
X024611Y029748D02*
X024951D01*
X024781Y029578D02*
Y029918D01*
X020611Y027748D02*
X020951D01*
X020781Y027578D02*
Y027918D01*
X021611Y027748D02*
X021951D01*
X021781Y027578D02*
Y027918D01*
X022611Y027748D02*
X022951D01*
X022781Y027578D02*
Y027918D01*
X023611Y027748D02*
X023951D01*
X023781Y027578D02*
Y027918D01*
X024611Y027748D02*
X024951D01*
X024781Y027578D02*
Y027918D01*
X019611Y027748D02*
X019951D01*
X019781Y027578D02*
Y027918D01*
X020611Y026748D02*
X020951D01*
X020781Y026578D02*
Y026918D01*
X021611Y026748D02*
X021951D01*
X021781Y026578D02*
Y026918D01*
X022611Y026748D02*
X022951D01*
X022781Y026578D02*
Y026918D01*
X023611Y026748D02*
X023951D01*
X023781Y026578D02*
Y026918D01*
X024611Y028748D02*
X024951D01*
X024781Y028578D02*
Y028918D01*
X023611Y028748D02*
X023951D01*
X023781Y028578D02*
Y028918D01*
X020611Y028748D02*
X020951D01*
X020781Y028578D02*
Y028918D01*
X019611Y028748D02*
X019951D01*
X019781Y028578D02*
Y028918D01*
X029886Y034882D02*
X030336D01*
X030111Y034657D02*
Y035107D01*
X030886Y034882D02*
X031336D01*
X031111Y034657D02*
Y035107D01*
X031886Y034882D02*
X032336D01*
X032111Y034657D02*
Y035107D01*
X032886Y034882D02*
X033336D01*
X033111Y034657D02*
Y035107D01*
X033886Y034882D02*
X034336D01*
X034111Y034657D02*
Y035107D01*
X034886Y034882D02*
X035336D01*
X035111Y034657D02*
Y035107D01*
X035886Y034882D02*
X036336D01*
X036111Y034657D02*
Y035107D01*
X036886Y034882D02*
X037336D01*
X037111Y034657D02*
Y035107D01*
X037886Y034882D02*
X038336D01*
X038111Y034657D02*
Y035107D01*
X038886Y034882D02*
X039336D01*
X039111Y034657D02*
Y035107D01*
X038886Y026882D02*
X039336D01*
X039111Y026657D02*
Y027107D01*
X037886Y026882D02*
X038336D01*
X038111Y026657D02*
Y027107D01*
X036886Y026882D02*
X037336D01*
X037111Y026657D02*
Y027107D01*
X035886Y026882D02*
X036336D01*
X036111Y026657D02*
Y027107D01*
X034886Y026882D02*
X035336D01*
X035111Y026657D02*
Y027107D01*
X033886Y026882D02*
X034336D01*
X034111Y026657D02*
Y027107D01*
X032886Y026882D02*
X033336D01*
X033111Y026657D02*
Y027107D01*
X031886Y026882D02*
X032336D01*
X032111Y026657D02*
Y027107D01*
X030886Y026882D02*
X031336D01*
X031111Y026657D02*
Y027107D01*
X029886Y026882D02*
X030336D01*
X030111Y026657D02*
Y027107D01*
X018997Y035819D02*
X019447D01*
X019222Y035594D02*
Y036044D01*
X018997Y034819D02*
X019447D01*
X019222Y034594D02*
Y035044D01*
X020997Y035819D02*
X021447D01*
X021222Y035594D02*
Y036044D01*
X020997Y034819D02*
X021447D01*
X021222Y034594D02*
Y035044D01*
X019997Y034819D02*
X020447D01*
X020222Y034594D02*
Y035044D01*
X019997Y035819D02*
X020447D01*
X020222Y035594D02*
Y036044D01*
X021997Y035819D02*
X022447D01*
X022222Y035594D02*
Y036044D01*
X021997Y034819D02*
X022447D01*
X022222Y034594D02*
Y035044D01*
X022997Y034819D02*
X023447D01*
X023222Y034594D02*
Y035044D01*
X022997Y035819D02*
X023447D01*
X023222Y035594D02*
Y036044D01*
X024461Y035347D02*
X024911D01*
X024686Y035122D02*
Y035571D01*
X025461Y035347D02*
X025911D01*
X025686Y035122D02*
Y035571D01*
X026461Y035347D02*
X026911D01*
X026686Y035122D02*
Y035571D01*
X037527Y032433D02*
X037657D01*
X037592Y032368D02*
Y032498D01*
X037802Y032039D02*
X037932D01*
X037867Y031974D02*
Y032104D01*
X038038Y031646D02*
X038168D01*
X038103Y031581D02*
Y031711D01*
X026547Y031892D02*
X026677D01*
X026612Y031827D02*
Y031957D01*
X026143Y032292D02*
X026273D01*
X026208Y032227D02*
Y032357D01*
X032077Y025602D02*
X032207D01*
X032142Y025537D02*
Y025667D01*
X028587Y025412D02*
X028717D01*
X028652Y025347D02*
Y025477D01*
X034177Y030872D02*
X034307D01*
X034242Y030807D02*
Y030937D01*
X035437Y029972D02*
X035567D01*
X035502Y029907D02*
Y030037D01*
X033617Y029572D02*
X033747D01*
X033682Y029507D02*
Y029637D01*
X034617Y031202D02*
X034747D01*
X034682Y031137D02*
Y031267D01*
X033197Y031792D02*
X033327D01*
X033262Y031727D02*
Y031857D01*
X030757Y030502D02*
X030887D01*
X030822Y030437D02*
Y030567D01*
X030547Y028542D02*
X030677D01*
X030612Y028477D02*
Y028607D01*
X035977Y028252D02*
X036107D01*
X036042Y028187D02*
Y028317D01*
X034787Y031762D02*
X034917D01*
X034852Y031697D02*
Y031827D01*
X034928Y032236D02*
X035058D01*
X034993Y032171D02*
Y032301D01*
X035347Y032002D02*
X035477D01*
X035412Y031937D02*
Y032067D01*
X031047Y031092D02*
X031177D01*
X031112Y031027D02*
Y031157D01*
X030937Y035782D02*
X031067D01*
X031002Y035717D02*
Y035847D01*
X036911Y032462D02*
X037041D01*
X036976Y032397D02*
Y032527D01*
X031477Y027412D02*
X031607D01*
X031542Y027347D02*
Y027477D01*
X036387Y031062D02*
X036517D01*
X036452Y030997D02*
Y031127D01*
X036607Y025672D02*
X036737D01*
X036672Y025607D02*
Y025737D01*
X038647Y029162D02*
X038777D01*
X038712Y029097D02*
Y029227D01*
X032767Y033442D02*
X032897D01*
X032832Y033377D02*
Y033507D01*
X030707Y029482D02*
X030837D01*
X030772Y029417D02*
Y029547D01*
X031237Y025572D02*
X031367D01*
X031302Y025507D02*
Y025637D01*
M02*
